<svg id="background" width="100%" height="100%" viewBox="0 -70 783 469" fill="none" preserveAspectRatio="none" xmlns="http://www.w3.org/2000/svg">
<path d="M19.4297 87.0249C14.1484 87.0249 10.0078 85.4312 7.00781 82.2437C4.02344 79.0562 2.53125 74.564 2.53125 68.7671C2.53125 63.0796 4.04688 58.603 7.07812 55.3374C10.125 52.0718 14.25 50.439 19.4531 50.439C23.1875 50.439 27.0781 51.4937 31.125 53.603V58.7358H30.7969C27.125 55.6577 23.25 54.1187 19.1719 54.1187C15.4531 54.1187 12.5078 55.4155 10.3359 58.0093C8.16406 60.5874 7.07812 64.1733 7.07812 68.7671C7.07812 73.3296 8.17969 76.8999 10.3828 79.478C12.6016 82.0405 15.5469 83.3218 19.2188 83.3218C21.2031 83.3218 23.0938 83.0093 24.8906 82.3843C26.6875 81.7437 28.6562 80.5015 30.7969 78.6577H31.125V83.814C28.125 85.2358 25.7891 86.1265 24.1172 86.4858C22.4609 86.8452 20.8984 87.0249 19.4297 87.0249ZM33.3281 147.392H27.6328L16.0078 133.189H8.8125V147.392H4.45312V112.072H14.4609C19.1641 112.072 22.5234 112.955 24.5391 114.72C26.5703 116.486 27.5859 118.806 27.5859 121.681C27.5859 126.541 25.2031 129.962 20.4375 131.947L33.3281 147.392ZM8.8125 115.775V129.603H13.9453C17.1797 129.603 19.5 128.947 20.9062 127.634C22.3125 126.322 23.0156 124.408 23.0156 121.892C23.0156 117.814 20.2578 115.775 14.7422 115.775H8.8125ZM28.9922 208.392H6V173.072H28.9922V176.869H10.3594V187.158H28.5234V190.955H10.3594V204.595H28.9922V208.392ZM24.1406 255.681L17.7891 238.267L11.4609 255.681H24.1406ZM29.0859 269.392L25.4531 259.314H10.125L6.49219 269.392H2.0625L15.1406 234.072H20.6953L33.75 269.392H29.0859ZM14.3203 330.392V298.869H1.78125V295.072H31.2188V298.869H18.6797V330.392H14.3203ZM28.9922 391.392H6V356.072H28.9922V359.869H10.3594V370.158H28.5234V373.955H10.3594V387.595H28.9922V391.392Z" fill="#2DA440" fill-opacity="0.3"/>
<path d="M44.784 18.0073H62.128V21.2073L56.112 21.9753L64.88 51.7993L66.736 60.6953L68.848 51.7993L76.208 27.4153L74.48 21.9753L69.936 21.2073V18.0073H87.92V21.2073L81.648 21.9753L90.288 51.7993L92.464 61.3993L94.256 51.7993L102.32 21.9753L95.984 21.2073V18.0073H111.216V21.2073L106.992 21.9753L94.256 65.8793H87.984L78.192 33.8153L68.72 65.8793H62.64L49.008 22.0393L44.784 21.2073V18.0073ZM58.4128 142.423L63.7248 141.783V101.975L58.7328 101.143V98.0073H67.1168C68.3114 98.0073 69.9328 97.9219 71.9808 97.7513C74.1141 97.5806 75.7781 97.4953 76.9728 97.4953C83.2448 97.4953 87.7034 98.5193 90.3488 100.567C93.0368 102.573 94.3808 105.751 94.3808 110.103C94.3808 113.133 93.5274 115.906 91.8208 118.423C90.1568 120.941 87.8528 122.647 84.9088 123.543C86.2741 124.269 87.5328 125.527 88.6848 127.319C89.8794 129.069 91.3301 131.522 93.0368 134.679C94.3594 137.069 95.3621 138.818 96.0448 139.927C96.7701 141.037 97.4528 141.655 98.0928 141.783L100.589 142.423V145.559H91.7568C91.0741 145.559 90.3061 144.834 89.4528 143.383C88.5994 141.89 87.4688 139.607 86.0608 136.535C84.5248 133.165 83.1808 130.498 82.0288 128.535C80.9194 126.53 79.8101 125.25 78.7008 124.695C74.1354 124.695 71.4261 124.674 70.5728 124.631V141.783L76.9088 142.423V145.559H58.4128V142.423ZM78.1888 121.239C80.9194 121.239 83.0741 120.343 84.6528 118.551C86.2314 116.759 87.0208 114.093 87.0208 110.551C87.0208 107.437 86.2101 105.069 84.5888 103.447C83.0101 101.783 80.2581 100.951 76.3328 100.951C74.9674 100.951 73.6021 101.037 72.2368 101.207C71.3834 101.293 70.8288 101.335 70.5728 101.335V121.175C71.2128 121.218 72.5354 121.239 74.5408 121.239H78.1888ZM74.5017 181.975L68.5498 181.207V178.007H87.3658V181.207L81.4138 181.975V221.783L87.3658 222.487V225.559H68.6138V222.423L74.5017 221.783V181.975ZM74.4038 261.399L63.3958 261.783L61.1558 275.159H56.9318L58.0198 258.007H97.8918L98.6598 275.159H94.6278L92.5158 261.783L81.4438 261.399V301.783L90.5318 302.423V305.559H66.0838V302.423L74.4038 301.783V261.399ZM65.4123 341.975L60.1643 341.207V338.007H92.7403L93.6363 347.927H89.9883L88.1323 341.719L72.2603 341.335V359.383L82.9483 359.191L83.8443 353.879H87.3643V368.599H83.8443L82.9483 363.095L72.2603 362.903V381.975L90.3083 381.335L93.7003 373.271L97.4763 374.423L95.6203 385.559H60.1003V382.423L65.4123 381.783V341.975Z" fill="#2DA440" fill-opacity="0.3"/>
<path d="M743.25 68.5694V21.4756H757.125C759.25 21.4756 761.052 21.5173 762.531 21.6006C764.031 21.684 765.562 21.9548 767.125 22.4131C768.708 22.8715 770.062 23.5694 771.188 24.5069C772.312 25.4236 773.146 26.5069 773.688 27.7569C774.229 29.0069 774.5 30.434 774.5 32.0381C774.5 36.2048 772.396 39.4131 768.188 41.6631V41.9131C771.375 42.5798 773.865 43.9861 775.656 46.1319C777.448 48.2569 778.344 50.9027 778.344 54.0694C778.344 58.5486 776.729 62.0902 773.5 64.6944C770.292 67.2777 765.708 68.5694 759.75 68.5694H743.25ZM749.062 26.4131V40.7256H757.469C761.531 40.7256 764.375 40.0694 766 38.7569C767.625 37.4444 768.438 35.4236 768.438 32.6944C768.438 30.7986 767.792 29.2777 766.5 28.1319C765.208 26.9861 761.958 26.4131 756.75 26.4131H749.062ZM749.062 45.5381V63.6319H757.531C763.51 63.6319 767.458 62.809 769.375 61.1631C771.312 59.4965 772.281 57.2569 772.281 54.4444C772.281 52.6111 771.927 51.0486 771.219 49.7569C770.51 48.4444 769.396 47.4131 767.875 46.6631C766.375 45.9131 763.448 45.5381 759.094 45.5381H749.062ZM777.062 130.882C777.062 137.694 775.51 142.674 772.406 145.819C769.302 148.965 764.823 150.538 758.969 150.538C746.927 150.538 740.906 143.986 740.906 130.882V102.476H746.719V131.413C746.719 136.455 747.729 140.09 749.75 142.319C751.771 144.528 754.844 145.632 758.969 145.632C763.031 145.632 766.094 144.549 768.156 142.382C770.219 140.194 771.25 136.59 771.25 131.569V102.476H777.062V130.882ZM768.062 230.569H749.906V226.226H756.094V187.819H749.906V183.476H768.062V187.819H761.906V226.226H768.062V230.569ZM776.312 311.569H746.969V264.476H752.781V306.507H776.312V311.569ZM740.812 392.569V345.476H752.156C758.781 345.476 763.99 346.34 767.781 348.069C771.573 349.799 774.562 352.444 776.75 356.007C778.958 359.549 780.062 363.903 780.062 369.069C780.062 375.486 777.979 381.007 773.812 385.632C769.667 390.257 762.49 392.569 752.281 392.569H740.812ZM746.625 350.413V387.632H752.688C760.125 387.632 765.531 386.059 768.906 382.913C772.281 379.767 773.969 375.121 773.969 368.976C773.969 363.142 772.26 358.59 768.844 355.319C765.427 352.049 760.042 350.413 752.688 350.413H746.625Z" fill="#2DA440" fill-opacity="0.3"/>
<path d="M123.232 210.886C121.472 210.886 119.968 210.51 118.72 209.758C117.488 208.99 116.552 207.918 115.912 206.542C115.272 205.166 114.952 203.55 114.952 201.694C114.952 199.902 115.328 198.318 116.08 196.942C116.832 195.566 117.864 194.502 119.176 193.75C120.488 192.982 121.96 192.598 123.592 192.598C124.824 192.598 126.304 192.79 128.032 193.174L128.824 193.318L128.584 197.638H126.976L126.376 194.59C126.152 194.398 125.76 194.238 125.2 194.11C124.656 193.966 123.984 193.894 123.184 193.894C122.16 193.894 121.248 194.19 120.448 194.782C119.648 195.358 119.016 196.214 118.552 197.35C118.104 198.486 117.88 199.846 117.88 201.43C117.88 202.934 118.08 204.302 118.48 205.534C118.88 206.766 119.488 207.75 120.304 208.486C121.12 209.206 122.128 209.566 123.328 209.566C124.176 209.566 124.824 209.494 125.272 209.35C125.736 209.206 126.128 208.998 126.448 208.726L127.456 206.374L128.968 206.566L128.392 209.974C128.056 209.99 127.56 210.102 126.904 210.31C126.328 210.486 125.768 210.622 125.224 210.718C124.696 210.83 124.032 210.886 123.232 210.886ZM121.716 240.886C120.084 240.886 118.7 240.51 117.564 239.758C116.444 239.006 115.596 237.95 115.02 236.59C114.444 235.214 114.156 233.622 114.156 231.814C114.156 229.974 114.5 228.358 115.188 226.966C115.892 225.574 116.852 224.502 118.068 223.75C119.284 222.982 120.652 222.598 122.172 222.598C124.668 222.598 126.572 223.39 127.884 224.974C129.212 226.542 129.876 228.718 129.876 231.502C129.876 233.374 129.516 235.022 128.796 236.446C128.092 237.854 127.116 238.95 125.868 239.734C124.636 240.502 123.252 240.886 121.716 240.886ZM122.028 223.846C120.476 223.846 119.252 224.526 118.356 225.886C117.46 227.23 117.012 229.206 117.012 231.814C117.012 234.214 117.444 236.118 118.308 237.526C119.188 238.918 120.412 239.614 121.98 239.614C123.516 239.614 124.732 238.918 125.628 237.526C126.54 236.134 126.996 234.134 126.996 231.526C126.996 229.11 126.564 227.23 125.7 225.886C124.836 224.526 123.612 223.846 122.028 223.846ZM115.534 254.278L113.614 253.99V252.79H118.078L126.07 264.502L127.414 267.046V254.278L125.326 253.99V252.79H130.99V253.99L129.07 254.278V270.622H127.174L119.014 258.646L117.166 255.478V269.206L119.446 269.446V270.622H113.614V269.446L115.534 269.182V254.278ZM115.534 284.278L113.614 283.99V282.79H118.078L126.07 294.502L127.414 297.046V284.278L125.326 283.99V282.79H130.99V283.99L129.07 284.278V300.622H127.174L119.014 288.646L117.166 285.478V299.206L119.446 299.446V300.622H113.614V299.446L115.534 299.182V284.278ZM117.28 314.278L115.312 313.99V312.79H127.528L127.864 316.51H126.496L125.8 314.182L119.848 314.038V320.806L123.856 320.734L124.192 318.742H125.512V324.262H124.192L123.856 322.198L119.848 322.126V329.278L126.616 329.038L127.888 326.014L129.304 326.446L128.608 330.622H115.288V329.446L117.28 329.206V314.278ZM123.232 360.886C121.472 360.886 119.968 360.51 118.72 359.758C117.488 358.99 116.552 357.918 115.912 356.542C115.272 355.166 114.952 353.55 114.952 351.694C114.952 349.902 115.328 348.318 116.08 346.942C116.832 345.566 117.864 344.502 119.176 343.75C120.488 342.982 121.96 342.598 123.592 342.598C124.824 342.598 126.304 342.79 128.032 343.174L128.824 343.318L128.584 347.638H126.976L126.376 344.59C126.152 344.398 125.76 344.238 125.2 344.11C124.656 343.966 123.984 343.894 123.184 343.894C122.16 343.894 121.248 344.19 120.448 344.782C119.648 345.358 119.016 346.214 118.552 347.35C118.104 348.486 117.88 349.846 117.88 351.43C117.88 352.934 118.08 354.302 118.48 355.534C118.88 356.766 119.488 357.75 120.304 358.486C121.12 359.206 122.128 359.566 123.328 359.566C124.176 359.566 124.824 359.494 125.272 359.35C125.736 359.206 126.128 358.998 126.448 358.726L127.456 356.374L128.968 356.566L128.392 359.974C128.056 359.99 127.56 360.102 126.904 360.31C126.328 360.486 125.768 360.622 125.224 360.718C124.696 360.83 124.032 360.886 123.232 360.886ZM120.651 374.062L116.523 374.206L115.683 379.222H114.099L114.507 372.79H129.459L129.747 379.222H128.235L127.443 374.206L123.291 374.062V389.206L126.699 389.446V390.622H117.531V389.446L120.651 389.206V374.062Z" fill="#2DA440" fill-opacity="0.3"/>
<path d="M626.232 211.881C624.472 211.881 622.968 211.505 621.72 210.753C620.488 209.985 619.552 208.913 618.912 207.537C618.272 206.161 617.952 204.545 617.952 202.689C617.952 200.897 618.328 199.313 619.08 197.937C619.832 196.561 620.864 195.497 622.176 194.745C623.488 193.977 624.96 193.593 626.592 193.593C627.824 193.593 629.304 193.785 631.032 194.169L631.824 194.313L631.584 198.633H629.976L629.376 195.585C629.152 195.393 628.76 195.233 628.2 195.105C627.656 194.961 626.984 194.889 626.184 194.889C625.16 194.889 624.248 195.185 623.448 195.777C622.648 196.353 622.016 197.209 621.552 198.345C621.104 199.481 620.88 200.841 620.88 202.425C620.88 203.929 621.08 205.297 621.48 206.529C621.88 207.761 622.488 208.745 623.304 209.481C624.12 210.201 625.128 210.561 626.328 210.561C627.176 210.561 627.824 210.489 628.272 210.345C628.736 210.201 629.128 209.993 629.448 209.721L630.456 207.369L631.968 207.561L631.392 210.969C631.056 210.985 630.56 211.097 629.904 211.305C629.328 211.481 628.768 211.617 628.224 211.713C627.696 211.825 627.032 211.881 626.232 211.881ZM624.716 241.881C623.084 241.881 621.7 241.505 620.564 240.753C619.444 240.001 618.596 238.945 618.02 237.585C617.444 236.209 617.156 234.617 617.156 232.809C617.156 230.969 617.5 229.353 618.188 227.961C618.892 226.569 619.852 225.497 621.068 224.745C622.284 223.977 623.652 223.593 625.172 223.593C627.668 223.593 629.572 224.385 630.884 225.969C632.212 227.537 632.876 229.713 632.876 232.497C632.876 234.369 632.516 236.017 631.796 237.441C631.092 238.849 630.116 239.945 628.868 240.729C627.636 241.497 626.252 241.881 624.716 241.881ZM625.028 224.841C623.476 224.841 622.252 225.521 621.356 226.881C620.46 228.225 620.012 230.201 620.012 232.809C620.012 235.209 620.444 237.113 621.308 238.521C622.188 239.913 623.412 240.609 624.98 240.609C626.516 240.609 627.732 239.913 628.628 238.521C629.54 237.129 629.996 235.129 629.996 232.521C629.996 230.105 629.564 228.225 628.7 226.881C627.836 225.521 626.612 224.841 625.028 224.841ZM618.534 255.273L616.614 254.985V253.785H621.078L629.07 265.497L630.414 268.041V255.273L628.326 254.985V253.785H633.99V254.985L632.07 255.273V271.617H630.174L622.014 259.641L620.166 256.473V270.201L622.446 270.441V271.617H616.614V270.441L618.534 270.177V255.273ZM618.534 285.273L616.614 284.985V283.785H621.078L629.07 295.497L630.414 298.041V285.273L628.326 284.985V283.785H633.99V284.985L632.07 285.273V301.617H630.174L622.014 289.641L620.166 286.473V300.201L622.446 300.441V301.617H616.614V300.441L618.534 300.177V285.273ZM620.28 315.273L618.312 314.985V313.785H630.528L630.864 317.505H629.496L628.8 315.177L622.848 315.033V321.801L626.856 321.729L627.192 319.737H628.512V325.257H627.192L626.856 323.193L622.848 323.121V330.273L629.616 330.033L630.888 327.009L632.304 327.441L631.608 331.617H618.288V330.441L620.28 330.201V315.273ZM626.232 361.881C624.472 361.881 622.968 361.505 621.72 360.753C620.488 359.985 619.552 358.913 618.912 357.537C618.272 356.161 617.952 354.545 617.952 352.689C617.952 350.897 618.328 349.313 619.08 347.937C619.832 346.561 620.864 345.497 622.176 344.745C623.488 343.977 624.96 343.593 626.592 343.593C627.824 343.593 629.304 343.785 631.032 344.169L631.824 344.313L631.584 348.633H629.976L629.376 345.585C629.152 345.393 628.76 345.233 628.2 345.105C627.656 344.961 626.984 344.889 626.184 344.889C625.16 344.889 624.248 345.185 623.448 345.777C622.648 346.353 622.016 347.209 621.552 348.345C621.104 349.481 620.88 350.841 620.88 352.425C620.88 353.929 621.08 355.297 621.48 356.529C621.88 357.761 622.488 358.745 623.304 359.481C624.12 360.201 625.128 360.561 626.328 360.561C627.176 360.561 627.824 360.489 628.272 360.345C628.736 360.201 629.128 359.993 629.448 359.721L630.456 357.369L631.968 357.561L631.392 360.969C631.056 360.985 630.56 361.097 629.904 361.305C629.328 361.481 628.768 361.617 628.224 361.713C627.696 361.825 627.032 361.881 626.232 361.881ZM623.651 375.057L619.523 375.201L618.683 380.217H617.099L617.507 373.785H632.459L632.747 380.217H631.235L630.443 375.201L626.291 375.057V390.201L629.699 390.441V391.617H620.531V390.441L623.651 390.201V375.057Z" fill="#2DA440" fill-opacity="0.3"/>
<path d="M189.141 207.708V181.218H196.945C198.141 181.218 199.154 181.241 199.986 181.288C200.83 181.335 201.691 181.488 202.57 181.745C203.461 182.003 204.223 182.396 204.855 182.923C205.488 183.439 205.957 184.048 206.262 184.751C206.566 185.454 206.719 186.257 206.719 187.159C206.719 189.503 205.535 191.308 203.168 192.573V192.714C204.961 193.089 206.361 193.88 207.369 195.087C208.377 196.282 208.881 197.771 208.881 199.552C208.881 202.071 207.973 204.064 206.156 205.529C204.352 206.982 201.773 207.708 198.422 207.708H189.141ZM192.41 183.995V192.046H197.139C199.424 192.046 201.023 191.677 201.938 190.939C202.852 190.2 203.309 189.064 203.309 187.529C203.309 186.462 202.945 185.607 202.219 184.962C201.492 184.318 199.664 183.995 196.734 183.995H192.41ZM192.41 194.753V204.931H197.174C200.537 204.931 202.758 204.468 203.836 203.542C204.926 202.605 205.471 201.345 205.471 199.763C205.471 198.732 205.271 197.853 204.873 197.126C204.475 196.388 203.848 195.808 202.992 195.386C202.148 194.964 200.502 194.753 198.053 194.753H192.41ZM208.16 243.196C208.16 247.029 207.287 249.829 205.541 251.599C203.795 253.368 201.275 254.253 197.982 254.253C191.209 254.253 187.822 250.568 187.822 243.196V227.218H191.092V243.495C191.092 246.331 191.66 248.376 192.797 249.63C193.934 250.872 195.662 251.493 197.982 251.493C200.268 251.493 201.99 250.884 203.15 249.665C204.311 248.435 204.891 246.407 204.891 243.583V227.218H208.16V243.196ZM203.098 299.708H192.885V297.265H196.365V275.661H192.885V273.218H203.098V275.661H199.635V297.265H203.098V299.708ZM207.738 345.708H191.232V319.218H194.502V342.861H207.738V345.708ZM187.77 391.708V365.218H194.15C197.877 365.218 200.807 365.704 202.939 366.677C205.072 367.65 206.754 369.138 207.984 371.142C209.227 373.134 209.848 375.583 209.848 378.489C209.848 382.099 208.676 385.204 206.332 387.806C204 390.407 199.963 391.708 194.221 391.708H187.77ZM191.039 367.995V388.931H194.449C198.633 388.931 201.674 388.046 203.572 386.277C205.471 384.507 206.42 381.894 206.42 378.437C206.42 375.155 205.459 372.595 203.537 370.755C201.615 368.915 198.586 367.995 194.449 367.995H191.039Z" fill="#2DA440" fill-opacity="0.3"/>
<path d="M225.516 208.736C224.489 208.736 223.612 208.516 222.884 208.078C222.165 207.63 221.619 207.004 221.246 206.202C220.872 205.399 220.686 204.456 220.686 203.374C220.686 202.328 220.905 201.404 221.344 200.602C221.782 199.799 222.384 199.178 223.15 198.74C223.915 198.292 224.774 198.068 225.726 198.068C226.444 198.068 227.308 198.18 228.316 198.404L228.778 198.488L228.638 201.008H227.7L227.35 199.23C227.219 199.118 226.99 199.024 226.664 198.95C226.346 198.866 225.954 198.824 225.488 198.824C224.89 198.824 224.358 198.996 223.892 199.342C223.425 199.678 223.056 200.177 222.786 200.84C222.524 201.502 222.394 202.296 222.394 203.22C222.394 204.097 222.51 204.895 222.744 205.614C222.977 206.332 223.332 206.906 223.808 207.336C224.284 207.756 224.872 207.966 225.572 207.966C226.066 207.966 226.444 207.924 226.706 207.84C226.976 207.756 227.205 207.634 227.392 207.476L227.98 206.104L228.862 206.216L228.526 208.204C228.33 208.213 228.04 208.278 227.658 208.4C227.322 208.502 226.995 208.582 226.678 208.638C226.37 208.703 225.982 208.736 225.516 208.736ZM224.631 226.736C223.679 226.736 222.872 226.516 222.209 226.078C221.556 225.639 221.061 225.023 220.725 224.23C220.389 223.427 220.221 222.498 220.221 221.444C220.221 220.37 220.422 219.428 220.823 218.616C221.234 217.804 221.794 217.178 222.503 216.74C223.212 216.292 224.01 216.068 224.897 216.068C226.353 216.068 227.464 216.53 228.229 217.454C229.004 218.368 229.391 219.638 229.391 221.262C229.391 222.354 229.181 223.315 228.761 224.146C228.35 224.967 227.781 225.606 227.053 226.064C226.334 226.512 225.527 226.736 224.631 226.736ZM224.813 216.796C223.908 216.796 223.194 217.192 222.671 217.986C222.148 218.77 221.887 219.922 221.887 221.444C221.887 222.844 222.139 223.954 222.643 224.776C223.156 225.588 223.87 225.994 224.785 225.994C225.681 225.994 226.39 225.588 226.913 224.776C227.445 223.964 227.711 222.797 227.711 221.276C227.711 219.866 227.459 218.77 226.955 217.986C226.451 217.192 225.737 216.796 224.813 216.796ZM222.194 235.048L221.06 234.88V234.18H225.078V234.88L223.692 235.048V243.756L227.304 243.63L228.13 241.278L228.984 241.404L228.494 244.582H221.032V243.896L222.194 243.756V235.048ZM222.194 253.048L221.06 252.88V252.18H225.078V252.88L223.692 253.048V261.756L227.304 261.63L228.13 259.278L228.984 259.404L228.494 262.582H221.032V261.896L222.194 261.756V253.048ZM224.01 270.096H225.55L228.952 279.756L229.82 279.896V280.582H226.124V279.896L227.286 279.756L226.628 277.684H222.54L221.882 279.756L223.086 279.896V280.582H219.768V279.896L220.636 279.756L224.01 270.096ZM224.892 272.336L224.542 271.104L224.206 272.364L222.792 276.858H226.362L224.892 272.336ZM221.811 289.048L220.663 288.88V288.18H222.553C222.87 288.18 223.272 288.161 223.757 288.124C224.205 288.086 224.536 288.068 224.751 288.068C226.039 288.068 226.958 288.268 227.509 288.67C228.069 289.071 228.349 289.659 228.349 290.434C228.349 291.096 228.158 291.666 227.775 292.142C227.392 292.618 226.87 292.916 226.207 293.038C227.103 293.019 227.808 293.229 228.321 293.668C228.834 294.106 229.091 294.704 229.091 295.46C229.091 296.402 228.755 297.172 228.083 297.77C227.42 298.367 226.319 298.666 224.779 298.666C224.443 298.666 224.121 298.652 223.813 298.624C223.085 298.596 222.651 298.582 222.511 298.582H220.649V297.896L221.811 297.756V289.048ZM223.295 292.772C223.426 292.781 223.692 292.786 224.093 292.786H224.863C225.516 292.786 226.011 292.604 226.347 292.24C226.683 291.876 226.851 291.358 226.851 290.686C226.851 290.032 226.683 289.556 226.347 289.258C226.011 288.95 225.437 288.796 224.625 288.796C224.289 288.796 223.944 288.814 223.589 288.852L223.295 288.88V292.772ZM223.295 297.798C223.51 297.872 223.995 297.91 224.751 297.91C225.694 297.91 226.375 297.718 226.795 297.336C227.224 296.944 227.439 296.384 227.439 295.656C227.439 294.937 227.252 294.414 226.879 294.088C226.515 293.761 225.922 293.598 225.101 293.598C224.149 293.598 223.547 293.607 223.295 293.626V297.798ZM224.631 316.736C223.679 316.736 222.872 316.516 222.209 316.078C221.556 315.639 221.061 315.023 220.725 314.23C220.389 313.427 220.221 312.498 220.221 311.444C220.221 310.37 220.422 309.428 220.823 308.616C221.234 307.804 221.794 307.178 222.503 306.74C223.212 306.292 224.01 306.068 224.897 306.068C226.353 306.068 227.464 306.53 228.229 307.454C229.004 308.368 229.391 309.638 229.391 311.262C229.391 312.354 229.181 313.315 228.761 314.146C228.35 314.967 227.781 315.606 227.053 316.064C226.334 316.512 225.527 316.736 224.631 316.736ZM224.813 306.796C223.908 306.796 223.194 307.192 222.671 307.986C222.148 308.77 221.887 309.922 221.887 311.444C221.887 312.844 222.139 313.954 222.643 314.776C223.156 315.588 223.87 315.994 224.785 315.994C225.681 315.994 226.39 315.588 226.913 314.776C227.445 313.964 227.711 312.797 227.711 311.276C227.711 309.866 227.459 308.77 226.955 307.986C226.451 307.192 225.737 306.796 224.813 306.796ZM220.512 333.896L221.674 333.756V325.048L220.582 324.866V324.18H222.416C222.677 324.18 223.032 324.161 223.48 324.124C223.947 324.086 224.311 324.068 224.572 324.068C225.944 324.068 226.919 324.292 227.498 324.74C228.086 325.178 228.38 325.874 228.38 326.826C228.38 327.488 228.193 328.095 227.82 328.646C227.456 329.196 226.952 329.57 226.308 329.766C226.607 329.924 226.882 330.2 227.134 330.592C227.395 330.974 227.713 331.511 228.086 332.202C228.375 332.724 228.595 333.107 228.744 333.35C228.903 333.592 229.052 333.728 229.192 333.756L229.738 333.896V334.582H227.806C227.657 334.582 227.489 334.423 227.302 334.106C227.115 333.779 226.868 333.28 226.56 332.608C226.224 331.87 225.93 331.287 225.678 330.858C225.435 330.419 225.193 330.139 224.95 330.018C223.951 330.018 223.359 330.013 223.172 330.004V333.756L224.558 333.896V334.582H220.512V333.896ZM224.838 329.262C225.435 329.262 225.907 329.066 226.252 328.674C226.597 328.282 226.77 327.698 226.77 326.924C226.77 326.242 226.593 325.724 226.238 325.37C225.893 325.006 225.291 324.824 224.432 324.824C224.133 324.824 223.835 324.842 223.536 324.88C223.349 324.898 223.228 324.908 223.172 324.908V329.248C223.312 329.257 223.601 329.262 224.04 329.262H224.838ZM224.01 342.096H225.55L228.952 351.756L229.82 351.896V352.582H226.124V351.896L227.286 351.756L226.628 349.684H222.54L221.882 351.756L223.086 351.896V352.582H219.768V351.896L220.636 351.756L224.01 342.096ZM224.892 344.336L224.542 343.104L224.206 344.364L222.792 348.858H226.362L224.892 344.336ZM224.01 360.922L221.602 361.006L221.112 363.932H220.188L220.426 360.18H229.148L229.316 363.932H228.434L227.972 361.006L225.55 360.922V369.756L227.538 369.896V370.582H222.19V369.896L224.01 369.756V360.922ZM222.043 379.048L220.895 378.88V378.18H228.021L228.217 380.35H227.419L227.013 378.992L223.541 378.908V382.856L225.879 382.814L226.075 381.652H226.845V384.872H226.075L225.879 383.668L223.541 383.626V387.798L227.489 387.658L228.231 385.894L229.057 386.146L228.651 388.582H220.881V387.896L222.043 387.756V379.048Z" fill="#2DA440" fill-opacity="0.3"/>
<path d="M327.552 254.611C325.571 254.611 324.019 254.014 322.894 252.818C321.774 251.623 321.215 249.938 321.215 247.764C321.215 245.632 321.783 243.953 322.92 242.728C324.062 241.504 325.609 240.891 327.561 240.891C328.961 240.891 330.42 241.287 331.938 242.078V244.003H331.814C330.438 242.848 328.984 242.271 327.455 242.271C326.061 242.271 324.956 242.758 324.142 243.73C323.327 244.697 322.92 246.042 322.92 247.764C322.92 249.475 323.333 250.814 324.159 251.781C324.991 252.742 326.096 253.222 327.473 253.222C328.217 253.222 328.926 253.105 329.6 252.871C330.273 252.631 331.012 252.165 331.814 251.473H331.938V253.407C330.812 253.94 329.937 254.274 329.31 254.409C328.688 254.544 328.103 254.611 327.552 254.611ZM326.444 277.646C324.563 277.646 323.087 277.04 322.015 275.827C320.942 274.608 320.406 272.918 320.406 270.756C320.406 268.599 320.942 266.912 322.015 265.693C323.093 264.469 324.569 263.856 326.444 263.856C328.325 263.856 329.802 264.469 330.874 265.693C331.952 266.912 332.491 268.599 332.491 270.756C332.491 272.906 331.952 274.594 330.874 275.818C329.802 277.037 328.325 277.646 326.444 277.646ZM326.453 265.254C325.082 265.254 324.016 265.734 323.254 266.695C322.492 267.656 322.111 269.01 322.111 270.756C322.111 272.502 322.492 273.855 323.254 274.816C324.016 275.771 325.082 276.249 326.453 276.249C327.818 276.249 328.882 275.771 329.644 274.816C330.405 273.855 330.786 272.502 330.786 270.756C330.786 268.998 330.405 267.641 329.644 266.686C328.882 265.731 327.818 265.254 326.453 265.254ZM331.498 300.374H329.6L322.929 288.878V300.374H321.408V287.129H323.676L329.978 297.992V287.129H331.498V300.374ZM331.498 323.374H329.6L322.929 311.878V323.374H321.408V310.129H323.676L329.978 320.992V310.129H331.498V323.374ZM331.138 346.374H322.516V333.129H331.138V334.553H324.15V338.411H330.962V339.835H324.15V344.95H331.138V346.374ZM327.552 369.611C325.571 369.611 324.019 369.014 322.894 367.818C321.774 366.623 321.215 364.938 321.215 362.764C321.215 360.632 321.783 358.953 322.92 357.728C324.062 356.504 325.609 355.891 327.561 355.891C328.961 355.891 330.42 356.287 331.938 357.078V359.003H331.814C330.438 357.848 328.984 357.271 327.455 357.271C326.061 357.271 324.956 357.758 324.142 358.73C323.327 359.697 322.92 361.042 322.92 362.764C322.92 364.475 323.333 365.814 324.159 366.781C324.991 367.742 326.096 368.222 327.473 368.222C328.217 368.222 328.926 368.105 329.6 367.871C330.273 367.631 331.012 367.165 331.814 366.473H331.938V368.407C330.812 368.94 329.937 369.274 329.31 369.409C328.688 369.544 328.103 369.611 327.552 369.611ZM325.636 392.374V380.553H320.934V379.129H331.973V380.553H327.271V392.374H325.636Z" fill="#2DA440" fill-opacity="0.3"/>
<path d="M366.164 272.273H358.5V260.499H366.164V261.765H359.953V265.194H366.008V266.46H359.953V271.007H366.164V272.273ZM357.453 292.273V280.499H360.289C361.945 280.499 363.247 280.715 364.195 281.148C365.143 281.58 365.891 282.241 366.438 283.132C366.99 284.017 367.266 285.106 367.266 286.398C367.266 288.002 366.745 289.382 365.703 290.538C364.667 291.694 362.872 292.273 360.32 292.273H357.453ZM358.906 281.733V291.038H360.422C362.281 291.038 363.633 290.645 364.477 289.858C365.32 289.072 365.742 287.911 365.742 286.374C365.742 284.916 365.315 283.778 364.461 282.96C363.607 282.142 362.26 281.733 360.422 281.733H358.906ZM366.516 307.601C366.516 309.304 366.128 310.549 365.352 311.335C364.576 312.121 363.456 312.515 361.992 312.515C358.982 312.515 357.477 310.877 357.477 307.601V300.499H358.93V307.733C358.93 308.994 359.182 309.903 359.688 310.46C360.193 311.012 360.961 311.288 361.992 311.288C363.008 311.288 363.773 311.017 364.289 310.476C364.805 309.929 365.062 309.028 365.062 307.773V300.499H366.516V307.601ZM362.977 332.483C361.216 332.483 359.836 331.952 358.836 330.89C357.841 329.827 357.344 328.33 357.344 326.398C357.344 324.502 357.849 323.01 358.859 321.921C359.875 320.832 361.25 320.288 362.984 320.288C364.229 320.288 365.526 320.64 366.875 321.343V323.054H366.766C365.542 322.028 364.25 321.515 362.891 321.515C361.651 321.515 360.669 321.947 359.945 322.812C359.221 323.671 358.859 324.866 358.859 326.398C358.859 327.918 359.227 329.108 359.961 329.968C360.701 330.822 361.682 331.249 362.906 331.249C363.568 331.249 364.198 331.145 364.797 330.937C365.396 330.723 366.052 330.309 366.766 329.694H366.875V331.413C365.875 331.887 365.096 332.184 364.539 332.304C363.987 332.424 363.466 332.483 362.977 332.483ZM364.547 347.702L362.43 341.898L360.32 347.702H364.547ZM366.195 352.273L364.984 348.913H359.875L358.664 352.273H357.188L361.547 340.499H363.398L367.75 352.273H366.195ZM361.273 372.273V361.765H357.094V360.499H366.906V361.765H362.727V372.273H361.273ZM366.164 392.273H358.5V380.499H366.164V381.765H359.953V385.194H366.008V386.46H359.953V391.007H366.164V392.273Z" fill="#2DA440" fill-opacity="0.3"/>
<path d="M422.853 261.371L421.541 261.179V260.379H429.685L429.909 262.859H428.997L428.533 261.307L424.565 261.211V265.723L427.237 265.675L427.461 264.347H428.341V268.027H427.461L427.237 266.651L424.565 266.603V271.371L429.077 271.211L429.925 269.195L430.869 269.483L430.405 272.267H421.525V271.483L422.853 271.323V261.371ZM422.002 281.371L420.754 281.179V280.379H422.85C423.18 280.379 423.655 280.358 424.274 280.315C424.892 280.273 425.356 280.251 425.666 280.251C427.65 280.251 429.122 280.753 430.082 281.755C431.052 282.747 431.538 284.145 431.538 285.947C431.538 287.206 431.287 288.326 430.786 289.307C430.295 290.278 429.602 291.035 428.706 291.579C427.81 292.123 426.78 292.395 425.618 292.395C425.362 292.395 424.924 292.374 424.306 292.331C423.666 292.289 423.186 292.267 422.866 292.267H420.674V291.483L422.002 291.323V281.371ZM423.698 291.371C424.071 291.457 424.551 291.499 425.138 291.499H425.618C426.418 291.489 427.122 291.286 427.73 290.891C428.348 290.497 428.828 289.91 429.17 289.131C429.511 288.342 429.682 287.387 429.682 286.267C429.682 284.582 429.314 283.302 428.578 282.427C427.852 281.553 426.754 281.115 425.282 281.115C424.972 281.115 424.604 281.137 424.178 281.179C423.996 281.211 423.836 281.227 423.698 281.227V291.371ZM426.174 312.395C424.606 312.395 423.449 311.979 422.702 311.147C421.966 310.305 421.598 309.003 421.598 307.243V301.371L420.462 301.179V300.379H424.734V301.179L423.374 301.387V307.419C423.374 308.87 423.63 309.915 424.142 310.555C424.665 311.195 425.411 311.515 426.382 311.515C427.353 311.515 428.078 311.174 428.558 310.491C429.049 309.809 429.294 308.817 429.294 307.515V301.387L427.95 301.179V300.379H431.678V301.179L430.51 301.371V307.435C430.51 309.099 430.115 310.342 429.326 311.163C428.537 311.985 427.486 312.395 426.174 312.395ZM426.821 332.443C425.648 332.443 424.645 332.193 423.813 331.691C422.992 331.179 422.368 330.465 421.941 329.547C421.515 328.63 421.301 327.553 421.301 326.315C421.301 325.121 421.552 324.065 422.053 323.147C422.555 322.23 423.243 321.521 424.117 321.019C424.992 320.507 425.973 320.251 427.061 320.251C427.883 320.251 428.869 320.379 430.021 320.635L430.549 320.731L430.389 323.611H429.317L428.917 321.579C428.768 321.451 428.507 321.345 428.133 321.259C427.771 321.163 427.323 321.115 426.789 321.115C426.107 321.115 425.499 321.313 424.965 321.707C424.432 322.091 424.011 322.662 423.701 323.419C423.403 324.177 423.253 325.083 423.253 326.139C423.253 327.142 423.387 328.054 423.653 328.875C423.92 329.697 424.325 330.353 424.869 330.843C425.413 331.323 426.085 331.563 426.885 331.563C427.451 331.563 427.883 331.515 428.181 331.419C428.491 331.323 428.752 331.185 428.965 331.003L429.637 329.435L430.645 329.563L430.261 331.835C430.037 331.846 429.707 331.921 429.269 332.059C428.885 332.177 428.512 332.267 428.149 332.331C427.797 332.406 427.355 332.443 426.821 332.443ZM425.101 340.283H426.861L430.749 351.323L431.741 351.483V352.267H427.517V351.483L428.845 351.323L428.093 348.955H423.421L422.669 351.323L424.045 351.483V352.267H420.253V351.483L421.245 351.323L425.101 340.283ZM426.109 342.843L425.709 341.435L425.325 342.875L423.709 348.011H427.789L426.109 342.843ZM425.101 361.227L422.349 361.323L421.789 364.667H420.733L421.005 360.379H430.973L431.165 364.667H430.157L429.629 361.323L426.861 361.227V371.323L429.133 371.483V372.267H423.021V371.483L425.101 371.323V361.227ZM422.853 381.371L421.541 381.179V380.379H429.685L429.909 382.859H428.997L428.533 381.307L424.565 381.211V385.723L427.237 385.675L427.461 384.347H428.341V388.027H427.461L427.237 386.651L424.565 386.603V391.371L429.077 391.211L429.925 389.195L430.869 389.483L430.405 392.267H421.525V391.483L422.853 391.323V381.371Z" fill="#2DA440" fill-opacity="0.3"/>
<path d="M347.884 291.347C346.711 291.347 345.708 291.097 344.876 290.595C344.055 290.083 343.431 289.369 343.004 288.451C342.577 287.534 342.364 286.457 342.364 285.219C342.364 284.025 342.615 282.969 343.116 282.051C343.617 281.134 344.305 280.425 345.18 279.923C346.055 279.411 347.036 279.155 348.124 279.155C348.945 279.155 349.932 279.283 351.084 279.539L351.612 279.635L351.452 282.515H350.38L349.98 280.483C349.831 280.355 349.569 280.249 349.196 280.163C348.833 280.067 348.385 280.019 347.852 280.019C347.169 280.019 346.561 280.217 346.028 280.611C345.495 280.995 345.073 281.566 344.764 282.323C344.465 283.081 344.316 283.987 344.316 285.043C344.316 286.046 344.449 286.958 344.716 287.779C344.983 288.601 345.388 289.257 345.932 289.747C346.476 290.227 347.148 290.467 347.948 290.467C348.513 290.467 348.945 290.419 349.244 290.323C349.553 290.227 349.815 290.089 350.028 289.907L350.7 288.339L351.708 288.467L351.324 290.739C351.1 290.75 350.769 290.825 350.332 290.963C349.948 291.081 349.575 291.171 349.212 291.235C348.86 291.31 348.417 291.347 347.884 291.347ZM342.166 310.387L343.494 310.227V300.275L342.246 300.067V299.283H344.342C344.64 299.283 345.046 299.262 345.558 299.219C346.091 299.177 346.507 299.155 346.806 299.155C348.374 299.155 349.488 299.411 350.15 299.923C350.822 300.425 351.158 301.219 351.158 302.307C351.158 303.065 350.944 303.758 350.518 304.387C350.102 305.017 349.526 305.443 348.79 305.667C349.131 305.849 349.446 306.163 349.734 306.611C350.032 307.049 350.395 307.662 350.822 308.451C351.152 309.049 351.403 309.486 351.574 309.763C351.755 310.041 351.926 310.195 352.086 310.227L352.71 310.387V311.171H350.502C350.331 311.171 350.139 310.99 349.926 310.627C349.712 310.254 349.43 309.683 349.078 308.915C348.694 308.073 348.358 307.406 348.07 306.915C347.792 306.414 347.515 306.094 347.238 305.955C346.096 305.955 345.419 305.95 345.206 305.939V310.227L346.79 310.387V311.171H342.166V310.387ZM347.11 305.091C347.792 305.091 348.331 304.867 348.726 304.419C349.12 303.971 349.318 303.305 349.318 302.419C349.318 301.641 349.115 301.049 348.71 300.643C348.315 300.227 347.627 300.019 346.646 300.019C346.304 300.019 345.963 300.041 345.622 300.083C345.408 300.105 345.27 300.115 345.206 300.115V305.075C345.366 305.086 345.696 305.091 346.198 305.091H347.11ZM343.916 320.275L342.604 320.083V319.283H350.748L350.972 321.763H350.06L349.596 320.211L345.628 320.115V324.627L348.3 324.579L348.524 323.251H349.404V326.931H348.524L348.3 325.555L345.628 325.507V330.275L350.14 330.115L350.988 328.099L351.932 328.387L351.468 331.171H342.588V330.387L343.916 330.227V320.275ZM346.163 339.187H347.923L351.811 350.227L352.803 350.387V351.171H348.579V350.387L349.907 350.227L349.155 347.859H344.483L343.731 350.227L345.107 350.387V351.171H341.315V350.387L342.307 350.227L346.163 339.187ZM347.171 341.747L346.771 340.339L346.387 341.779L344.771 346.915H348.851L347.171 341.747ZM346.163 360.131L343.411 360.227L342.851 363.571H341.795L342.067 359.283H352.035L352.227 363.571H351.219L350.691 360.227L347.923 360.131V370.227L350.195 370.387V371.171H344.083V370.387L346.163 370.227V360.131ZM343.916 380.275L342.604 380.083V379.283H350.748L350.972 381.763H350.06L349.596 380.211L345.628 380.115V384.627L348.3 384.579L348.524 383.251H349.404V386.931H348.524L348.3 385.555L345.628 385.507V390.275L350.14 390.115L350.988 388.099L351.932 388.387L351.468 391.171H342.588V390.387L343.916 390.227V380.275Z" fill="#2DA440" fill-opacity="0.3"/>
<path d="M499.516 212.715C498.489 212.715 497.612 212.496 496.884 212.057C496.165 211.609 495.619 210.984 495.246 210.181C494.872 209.379 494.686 208.436 494.686 207.353C494.686 206.308 494.905 205.384 495.344 204.581C495.782 203.779 496.384 203.158 497.15 202.719C497.915 202.271 498.774 202.047 499.726 202.047C500.444 202.047 501.308 202.159 502.316 202.383L502.778 202.467L502.638 204.987H501.7L501.35 203.209C501.219 203.097 500.99 203.004 500.664 202.929C500.346 202.845 499.954 202.803 499.488 202.803C498.89 202.803 498.358 202.976 497.892 203.321C497.425 203.657 497.056 204.157 496.786 204.819C496.524 205.482 496.394 206.275 496.394 207.199C496.394 208.077 496.51 208.875 496.744 209.593C496.977 210.312 497.332 210.886 497.808 211.315C498.284 211.735 498.872 211.945 499.572 211.945C500.066 211.945 500.444 211.903 500.706 211.819C500.976 211.735 501.205 211.614 501.392 211.455L501.98 210.083L502.862 210.195L502.526 212.183C502.33 212.193 502.04 212.258 501.658 212.379C501.322 212.482 500.995 212.561 500.678 212.617C500.37 212.683 499.982 212.715 499.516 212.715ZM498.631 230.715C497.679 230.715 496.872 230.496 496.209 230.057C495.556 229.619 495.061 229.003 494.725 228.209C494.389 227.407 494.221 226.478 494.221 225.423C494.221 224.35 494.422 223.407 494.823 222.595C495.234 221.783 495.794 221.158 496.503 220.719C497.212 220.271 498.01 220.047 498.897 220.047C500.353 220.047 501.464 220.509 502.229 221.433C503.004 222.348 503.391 223.617 503.391 225.241C503.391 226.333 503.181 227.295 502.761 228.125C502.35 228.947 501.781 229.586 501.053 230.043C500.334 230.491 499.527 230.715 498.631 230.715ZM498.813 220.775C497.908 220.775 497.194 221.172 496.671 221.965C496.148 222.749 495.887 223.902 495.887 225.423C495.887 226.823 496.139 227.934 496.643 228.755C497.156 229.567 497.87 229.973 498.785 229.973C499.681 229.973 500.39 229.567 500.913 228.755C501.445 227.943 501.711 226.777 501.711 225.255C501.711 223.846 501.459 222.749 500.955 221.965C500.451 221.172 499.737 220.775 498.813 220.775ZM496.194 239.027L495.06 238.859V238.159H499.078V238.859L497.692 239.027V247.735L501.304 247.609L502.13 245.257L502.984 245.383L502.494 248.561H495.032V247.875L496.194 247.735V239.027ZM496.194 257.027L495.06 256.859V256.159H499.078V256.859L497.692 257.027V265.735L501.304 265.609L502.13 263.257L502.984 263.383L502.494 266.561H495.032V265.875L496.194 265.735V257.027ZM498.01 274.075H499.55L502.952 283.735L503.82 283.875V284.561H500.124V283.875L501.286 283.735L500.628 281.663H496.54L495.882 283.735L497.086 283.875V284.561H493.768V283.875L494.636 283.735L498.01 274.075ZM498.892 276.315L498.542 275.083L498.206 276.343L496.792 280.837H500.362L498.892 276.315ZM495.811 293.027L494.663 292.859V292.159H496.553C496.87 292.159 497.272 292.141 497.757 292.103C498.205 292.066 498.536 292.047 498.751 292.047C500.039 292.047 500.958 292.248 501.509 292.649C502.069 293.051 502.349 293.639 502.349 294.413C502.349 295.076 502.158 295.645 501.775 296.121C501.392 296.597 500.87 296.896 500.207 297.017C501.103 296.999 501.808 297.209 502.321 297.647C502.834 298.086 503.091 298.683 503.091 299.439C503.091 300.382 502.755 301.152 502.083 301.749C501.42 302.347 500.319 302.645 498.779 302.645C498.443 302.645 498.121 302.631 497.813 302.603C497.085 302.575 496.651 302.561 496.511 302.561H494.649V301.875L495.811 301.735V293.027ZM497.295 296.751C497.426 296.761 497.692 296.765 498.093 296.765H498.863C499.516 296.765 500.011 296.583 500.347 296.219C500.683 295.855 500.851 295.337 500.851 294.665C500.851 294.012 500.683 293.536 500.347 293.237C500.011 292.929 499.437 292.775 498.625 292.775C498.289 292.775 497.944 292.794 497.589 292.831L497.295 292.859V296.751ZM497.295 301.777C497.51 301.852 497.995 301.889 498.751 301.889C499.694 301.889 500.375 301.698 500.795 301.315C501.224 300.923 501.439 300.363 501.439 299.635C501.439 298.917 501.252 298.394 500.879 298.067C500.515 297.741 499.922 297.577 499.101 297.577C498.149 297.577 497.547 297.587 497.295 297.605V301.777ZM498.631 320.715C497.679 320.715 496.872 320.496 496.209 320.057C495.556 319.619 495.061 319.003 494.725 318.209C494.389 317.407 494.221 316.478 494.221 315.423C494.221 314.35 494.422 313.407 494.823 312.595C495.234 311.783 495.794 311.158 496.503 310.719C497.212 310.271 498.01 310.047 498.897 310.047C500.353 310.047 501.464 310.509 502.229 311.433C503.004 312.348 503.391 313.617 503.391 315.241C503.391 316.333 503.181 317.295 502.761 318.125C502.35 318.947 501.781 319.586 501.053 320.043C500.334 320.491 499.527 320.715 498.631 320.715ZM498.813 310.775C497.908 310.775 497.194 311.172 496.671 311.965C496.148 312.749 495.887 313.902 495.887 315.423C495.887 316.823 496.139 317.934 496.643 318.755C497.156 319.567 497.87 319.973 498.785 319.973C499.681 319.973 500.39 319.567 500.913 318.755C501.445 317.943 501.711 316.777 501.711 315.255C501.711 313.846 501.459 312.749 500.955 311.965C500.451 311.172 499.737 310.775 498.813 310.775ZM494.512 337.875L495.674 337.735V329.027L494.582 328.845V328.159H496.416C496.677 328.159 497.032 328.141 497.48 328.103C497.947 328.066 498.311 328.047 498.572 328.047C499.944 328.047 500.919 328.271 501.498 328.719C502.086 329.158 502.38 329.853 502.38 330.805C502.38 331.468 502.193 332.075 501.82 332.625C501.456 333.176 500.952 333.549 500.308 333.745C500.607 333.904 500.882 334.179 501.134 334.571C501.395 334.954 501.713 335.491 502.086 336.181C502.375 336.704 502.595 337.087 502.744 337.329C502.903 337.572 503.052 337.707 503.192 337.735L503.738 337.875V338.561H501.806C501.657 338.561 501.489 338.403 501.302 338.085C501.115 337.759 500.868 337.259 500.56 336.587C500.224 335.85 499.93 335.267 499.678 334.837C499.435 334.399 499.193 334.119 498.95 333.997C497.951 333.997 497.359 333.993 497.172 333.983V337.735L498.558 337.875V338.561H494.512V337.875ZM498.838 333.241C499.435 333.241 499.907 333.045 500.252 332.653C500.597 332.261 500.77 331.678 500.77 330.903C500.77 330.222 500.593 329.704 500.238 329.349C499.893 328.985 499.291 328.803 498.432 328.803C498.133 328.803 497.835 328.822 497.536 328.859C497.349 328.878 497.228 328.887 497.172 328.887V333.227C497.312 333.237 497.601 333.241 498.04 333.241H498.838ZM498.01 346.075H499.55L502.952 355.735L503.82 355.875V356.561H500.124V355.875L501.286 355.735L500.628 353.663H496.54L495.882 355.735L497.086 355.875V356.561H493.768V355.875L494.636 355.735L498.01 346.075ZM498.892 348.315L498.542 347.083L498.206 348.343L496.792 352.837H500.362L498.892 348.315ZM498.01 364.901L495.602 364.985L495.112 367.911H494.188L494.426 364.159H503.148L503.316 367.911H502.434L501.972 364.985L499.55 364.901V373.735L501.538 373.875V374.561H496.19V373.875L498.01 373.735V364.901ZM496.043 383.027L494.895 382.859V382.159H502.021L502.217 384.329H501.419L501.013 382.971L497.541 382.887V386.835L499.879 386.793L500.075 385.631H500.845V388.851H500.075L499.879 387.647L497.541 387.605V391.777L501.489 391.637L502.231 389.873L503.057 390.125L502.651 392.561H494.881V391.875L496.043 391.735V383.027Z" fill="#2DA440" fill-opacity="0.3"/>
<path d="M467.365 181.218L459.947 207.708H457.012L450.965 185.7L444.971 207.708H442.123L434.617 181.218H437.975L443.793 202.47L449.541 181.218H452.617L458.365 202.663L464.166 181.218H467.365ZM463.621 253.708H459.35L450.631 243.056H445.234V253.708H441.965V227.218H449.471C452.998 227.218 455.518 227.88 457.029 229.204C458.553 230.529 459.314 232.269 459.314 234.425C459.314 238.07 457.527 240.636 453.953 242.124L463.621 253.708ZM445.234 229.995V240.366H449.084C451.51 240.366 453.25 239.874 454.305 238.89C455.359 237.905 455.887 236.47 455.887 234.583C455.887 231.525 453.818 229.995 449.682 229.995H445.234ZM456.098 299.708H445.885V297.265H449.365V275.661H445.885V273.218H456.098V275.661H452.635V297.265H456.098V299.708ZM449.365 345.708V322.066H439.961V319.218H462.039V322.066H452.635V345.708H449.365ZM460.369 391.708H443.125V365.218H460.369V368.066H446.395V375.782H460.018V378.63H446.395V388.861H460.369V391.708Z" fill="#2DA440" fill-opacity="0.3"/>
<path d="M691.316 183.93H701.072V185.73L697.688 186.162L702.62 202.938L703.664 207.942L704.852 202.938L708.992 189.222L708.02 186.162L705.464 185.73V183.93H715.58V185.73L712.052 186.162L716.912 202.938L718.136 208.338L719.144 202.938L723.68 186.162L720.116 185.73V183.93H728.684V185.73L726.308 186.162L719.144 210.858H715.616L710.108 192.822L704.78 210.858H701.36L693.692 186.198L691.316 185.73V183.93ZM698.982 253.914L701.97 253.554V231.162L699.162 230.694V228.93H703.878C704.55 228.93 705.462 228.882 706.614 228.786C707.814 228.69 708.75 228.642 709.422 228.642C712.95 228.642 715.458 229.218 716.946 230.37C718.458 231.498 719.214 233.286 719.214 235.734C719.214 237.438 718.734 238.998 717.774 240.414C716.838 241.83 715.542 242.79 713.886 243.294C714.654 243.702 715.362 244.41 716.01 245.418C716.682 246.402 717.498 247.782 718.458 249.558C719.202 250.902 719.766 251.886 720.15 252.51C720.558 253.134 720.942 253.482 721.302 253.554L722.706 253.914V255.678H717.738C717.354 255.678 716.922 255.27 716.442 254.454C715.962 253.614 715.326 252.33 714.534 250.602C713.67 248.706 712.914 247.206 712.266 246.102C711.642 244.974 711.018 244.254 710.394 243.942C707.826 243.942 706.302 243.93 705.822 243.906V253.554L709.386 253.914V255.678H698.982V253.914ZM710.106 241.998C711.642 241.998 712.854 241.494 713.742 240.486C714.63 239.478 715.074 237.978 715.074 235.986C715.074 234.234 714.618 232.902 713.706 231.99C712.818 231.054 711.27 230.586 709.062 230.586C708.294 230.586 707.526 230.634 706.758 230.73C706.278 230.778 705.966 230.802 705.822 230.802V241.962C706.182 241.986 706.926 241.998 708.054 241.998H710.106ZM708.032 276.162L704.684 275.73V273.93H715.268V275.73L711.92 276.162V298.554L715.268 298.95V300.678H704.72V298.914L708.032 298.554V276.162ZM707.977 320.838L701.785 321.054L700.525 328.578H698.149L698.761 318.93H721.189L721.621 328.578H719.353L718.165 321.054L711.937 320.838V343.554L717.049 343.914V345.678H703.297V343.914L707.977 343.554V320.838ZM702.919 366.162L699.967 365.73V363.93H718.291L718.795 369.51H716.743L715.699 366.018L706.771 365.802V375.954L712.783 375.846L713.287 372.858H715.267V381.138H713.287L712.783 378.042L706.771 377.934V388.662L716.923 388.302L718.831 383.766L720.955 384.414L719.911 390.678H699.931V388.914L702.919 388.554V366.162Z" fill="#2DA440" fill-opacity="0.3"/>
<path d="M551.322 186.162L548.37 185.73V183.93H553.23C554.046 183.93 555.078 183.882 556.326 183.786C557.478 183.69 558.33 183.642 558.882 183.642C562.194 183.642 564.558 184.158 565.974 185.19C567.414 186.222 568.134 187.734 568.134 189.726C568.134 191.43 567.642 192.894 566.658 194.118C565.674 195.342 564.33 196.11 562.626 196.422C564.93 196.374 566.742 196.914 568.062 198.042C569.382 199.17 570.042 200.706 570.042 202.65C570.042 205.074 569.178 207.054 567.45 208.59C565.746 210.126 562.914 210.894 558.954 210.894C558.09 210.894 557.262 210.858 556.47 210.786C554.598 210.714 553.482 210.678 553.122 210.678H548.334V208.914L551.322 208.554V186.162ZM555.138 195.738C555.474 195.762 556.158 195.774 557.19 195.774H559.17C560.85 195.774 562.122 195.306 562.986 194.37C563.85 193.434 564.282 192.102 564.282 190.374C564.282 188.694 563.85 187.47 562.986 186.702C562.122 185.91 560.646 185.514 558.558 185.514C557.694 185.514 556.806 185.562 555.894 185.658L555.138 185.73V195.738ZM555.138 208.662C555.69 208.854 556.938 208.95 558.882 208.95C561.306 208.95 563.058 208.458 564.138 207.474C565.242 206.466 565.794 205.026 565.794 203.154C565.794 201.306 565.314 199.962 564.354 199.122C563.418 198.282 561.894 197.862 559.782 197.862C557.334 197.862 555.786 197.886 555.138 197.934V208.662ZM559.392 255.966C555.864 255.966 553.26 255.03 551.58 253.158C549.924 251.262 549.096 248.334 549.096 244.374V231.162L546.54 230.73V228.93H556.152V230.73L553.092 231.198V244.77C553.092 248.034 553.668 250.386 554.82 251.826C555.996 253.266 557.676 253.986 559.86 253.986C562.044 253.986 563.676 253.218 564.756 251.682C565.86 250.146 566.412 247.914 566.412 244.986V231.198L563.388 230.73V228.93H571.776V230.73L569.148 231.162V244.806C569.148 248.55 568.26 251.346 566.484 253.194C564.708 255.042 562.344 255.966 559.392 255.966ZM557.032 276.162L553.684 275.73V273.93H564.268V275.73L560.92 276.162V298.554L564.268 298.95V300.678H553.72V298.914L557.032 298.554V276.162ZM552.308 321.162L549.392 320.73V318.93H559.724V320.73L556.16 321.162V343.554L565.448 343.23L567.572 337.182L569.768 337.506L568.508 345.678H549.32V343.914L552.308 343.554V321.162ZM550.003 366.162L547.195 365.73V363.93H551.911C552.655 363.93 553.723 363.882 555.115 363.786C556.507 363.69 557.551 363.642 558.247 363.642C562.711 363.642 566.023 364.77 568.183 367.026C570.367 369.258 571.459 372.402 571.459 376.458C571.459 379.29 570.895 381.81 569.767 384.018C568.663 386.202 567.103 387.906 565.087 389.13C563.071 390.354 560.755 390.966 558.139 390.966C557.563 390.966 556.579 390.918 555.187 390.822C553.747 390.726 552.667 390.678 551.947 390.678H547.015V388.914L550.003 388.554V366.162ZM553.819 388.662C554.659 388.854 555.739 388.95 557.059 388.95H558.139C559.939 388.926 561.523 388.47 562.891 387.582C564.283 386.694 565.363 385.374 566.131 383.622C566.899 381.846 567.283 379.698 567.283 377.178C567.283 373.386 566.455 370.506 564.799 368.538C563.167 366.57 560.695 365.586 557.383 365.586C556.687 365.586 555.859 365.634 554.899 365.73C554.491 365.802 554.131 365.838 553.819 365.838V388.662Z" fill="#2DA440" fill-opacity="0.3"/>
<path d="M154.989 167.262H156.969L161.343 179.682L162.459 179.862V180.744H157.707V179.862L159.201 179.682L158.355 177.018H153.099L152.253 179.682L153.801 179.862V180.744H149.535V179.862L150.651 179.682L154.989 167.262ZM156.123 170.142L155.673 168.558L155.241 170.178L153.423 175.956H158.013L156.123 170.142ZM150.491 202.862L151.985 202.682V191.486L150.581 191.252V190.37H152.939C153.275 190.37 153.731 190.346 154.307 190.298C154.907 190.25 155.375 190.226 155.711 190.226C157.475 190.226 158.729 190.514 159.473 191.09C160.229 191.654 160.607 192.548 160.607 193.772C160.607 194.624 160.367 195.404 159.887 196.112C159.419 196.82 158.771 197.3 157.943 197.552C158.327 197.756 158.681 198.11 159.005 198.614C159.341 199.106 159.749 199.796 160.229 200.684C160.601 201.356 160.883 201.848 161.075 202.16C161.279 202.472 161.471 202.646 161.651 202.682L162.353 202.862V203.744H159.869C159.677 203.744 159.461 203.54 159.221 203.132C158.981 202.712 158.663 202.07 158.267 201.206C157.835 200.258 157.457 199.508 157.133 198.956C156.821 198.392 156.509 198.032 156.197 197.876C154.913 197.876 154.151 197.87 153.911 197.858V202.682L155.693 202.862V203.744H150.491V202.862ZM156.053 196.904C156.821 196.904 157.427 196.652 157.871 196.148C158.315 195.644 158.537 194.894 158.537 193.898C158.537 193.022 158.309 192.356 157.853 191.9C157.409 191.432 156.635 191.198 155.531 191.198C155.147 191.198 154.763 191.222 154.379 191.27C154.139 191.294 153.983 191.306 153.911 191.306V196.886C154.091 196.898 154.463 196.904 155.027 196.904H156.053ZM154.989 214.324L151.893 214.432L151.263 218.194H150.075L150.381 213.37H161.595L161.811 218.194H160.677L160.083 214.432L156.969 214.324V225.682L159.525 225.862V226.744H152.649V225.862L154.989 225.682V214.324ZM155.016 237.486L153.342 237.27V236.37H158.634V237.27L156.96 237.486V248.682L158.634 248.88V249.744H153.36V248.862L155.016 248.682V237.486ZM156.924 272.942C155.604 272.942 154.476 272.66 153.54 272.096C152.616 271.52 151.914 270.716 151.434 269.684C150.954 268.652 150.714 267.44 150.714 266.048C150.714 264.704 150.996 263.516 151.56 262.484C152.124 261.452 152.898 260.654 153.882 260.09C154.866 259.514 155.97 259.226 157.194 259.226C158.118 259.226 159.228 259.37 160.524 259.658L161.118 259.766L160.938 263.006H159.732L159.282 260.72C159.114 260.576 158.82 260.456 158.4 260.36C157.992 260.252 157.488 260.198 156.888 260.198C156.12 260.198 155.436 260.42 154.836 260.864C154.236 261.296 153.762 261.938 153.414 262.79C153.078 263.642 152.91 264.662 152.91 265.85C152.91 266.978 153.06 268.004 153.36 268.928C153.66 269.852 154.116 270.59 154.728 271.142C155.34 271.682 156.096 271.952 156.996 271.952C157.632 271.952 158.118 271.898 158.454 271.79C158.802 271.682 159.096 271.526 159.336 271.322L160.092 269.558L161.226 269.702L160.794 272.258C160.542 272.27 160.17 272.354 159.678 272.51C159.246 272.642 158.826 272.744 158.418 272.816C158.022 272.9 157.524 272.942 156.924 272.942ZM156.196 295.888C154.432 295.888 153.13 295.42 152.29 294.484C151.462 293.536 151.048 292.072 151.048 290.092V283.486L149.77 283.27V282.37H154.576V283.27L153.046 283.504V290.29C153.046 291.922 153.334 293.098 153.91 293.818C154.498 294.538 155.338 294.898 156.43 294.898C157.522 294.898 158.338 294.514 158.878 293.746C159.43 292.978 159.706 291.862 159.706 290.398V283.504L158.194 283.27V282.37H162.388V283.27L161.074 283.486V290.308C161.074 292.18 160.63 293.578 159.742 294.502C158.854 295.426 157.672 295.888 156.196 295.888ZM152.654 306.486L151.196 306.27V305.37H156.362V306.27L154.58 306.486V317.682L159.224 317.52L160.286 314.496L161.384 314.658L160.754 318.744H151.16V317.862L152.654 317.682V306.486ZM154.989 328.262H156.969L161.343 340.682L162.459 340.862V341.744H157.707V340.862L159.201 340.682L158.355 338.018H153.099L152.253 340.682L153.801 340.862V341.744H149.535V340.862L150.651 340.682L154.989 328.262ZM156.123 331.142L155.673 329.558L155.241 331.178L153.423 336.956H158.013L156.123 331.142ZM154.989 352.324L151.893 352.432L151.263 356.194H150.075L150.381 351.37H161.595L161.811 356.194H160.677L160.083 352.432L156.969 352.324V363.682L159.525 363.862V364.744H152.649V363.862L154.989 363.682V352.324ZM152.46 375.486L150.984 375.27V374.37H160.146L160.398 377.16H159.372L158.85 375.414L154.386 375.306V380.382L157.392 380.328L157.644 378.834H158.634V382.974H157.644L157.392 381.426L154.386 381.372V386.736L159.462 386.556L160.416 384.288L161.478 384.612L160.956 387.744H150.966V386.862L152.46 386.682V375.486Z" fill="#2DA440" fill-opacity="0.3"/>
<path d="M538.791 179.587L536.409 173.057L534.036 179.587H538.791ZM540.646 184.728L539.283 180.949H533.535L532.173 184.728H530.512L535.416 171.483H537.499L542.395 184.728H540.646ZM542.983 207.728H540.848L536.488 202.402H533.79V207.728H532.155V194.483H535.908C537.672 194.483 538.932 194.814 539.688 195.477C540.449 196.139 540.83 197.009 540.83 198.087C540.83 199.909 539.937 201.192 538.149 201.936L542.983 207.728ZM533.79 195.872V201.058H535.715C536.928 201.058 537.798 200.811 538.325 200.319C538.853 199.827 539.116 199.109 539.116 198.166C539.116 196.637 538.082 195.872 536.014 195.872H533.79ZM535.636 230.728V218.907H530.934V217.483H541.973V218.907H537.271V230.728H535.636ZM539.002 253.728H533.896V252.507H535.636V241.705H533.896V240.483H539.002V241.705H537.271V252.507H539.002V253.728ZM537.552 276.966C535.571 276.966 534.019 276.368 532.894 275.173C531.774 273.977 531.215 272.293 531.215 270.119C531.215 267.986 531.783 266.308 532.92 265.083C534.062 263.858 535.609 263.246 537.561 263.246C538.961 263.246 540.42 263.642 541.938 264.433V266.357H541.814C540.438 265.203 538.984 264.626 537.455 264.626C536.061 264.626 534.956 265.112 534.142 266.085C533.327 267.052 532.92 268.396 532.92 270.119C532.92 271.83 533.333 273.169 534.159 274.136C534.991 275.097 536.096 275.577 537.473 275.577C538.217 275.577 538.926 275.46 539.6 275.226C540.273 274.985 541.012 274.519 541.814 273.828H541.938V275.762C540.812 276.295 539.937 276.629 539.31 276.764C538.688 276.898 538.103 276.966 537.552 276.966ZM541.533 294.473C541.533 296.389 541.097 297.789 540.224 298.674C539.351 299.559 538.091 300.001 536.444 300.001C533.058 300.001 531.364 298.158 531.364 294.473V286.483H532.999V294.622C532.999 296.04 533.283 297.062 533.852 297.689C534.42 298.311 535.284 298.621 536.444 298.621C537.587 298.621 538.448 298.316 539.028 297.707C539.608 297.092 539.898 296.078 539.898 294.666V286.483H541.533V294.473ZM541.322 322.728H533.069V309.483H534.704V321.305H541.322V322.728ZM539.318 340.587L536.937 334.057L534.563 340.587H539.318ZM541.173 345.728L539.811 341.949H534.062L532.7 345.728H531.039L535.943 332.483H538.026L542.922 345.728H541.173ZM535.636 368.728V356.907H530.934V355.483H541.973V356.907H537.271V368.728H535.636ZM541.138 391.728H532.516V378.483H541.138V379.907H534.15V383.766H540.962V385.189H534.15V390.305H541.138V391.728Z" fill="#2DA440" fill-opacity="0.3"/>
<path d="M307.377 183.926C306.057 183.926 304.929 183.644 303.993 183.08C303.069 182.504 302.367 181.7 301.887 180.668C301.407 179.636 301.167 178.424 301.167 177.032C301.167 175.688 301.449 174.5 302.013 173.468C302.577 172.436 303.351 171.638 304.335 171.074C305.319 170.498 306.423 170.21 307.647 170.21C308.571 170.21 309.681 170.354 310.977 170.642L311.571 170.75L311.391 173.99H310.185L309.735 171.704C309.567 171.56 309.273 171.44 308.853 171.344C308.445 171.236 307.941 171.182 307.341 171.182C306.573 171.182 305.889 171.404 305.289 171.848C304.689 172.28 304.215 172.922 303.867 173.774C303.531 174.626 303.363 175.646 303.363 176.834C303.363 177.962 303.513 178.988 303.813 179.912C304.113 180.836 304.569 181.574 305.181 182.126C305.793 182.666 306.549 182.936 307.449 182.936C308.085 182.936 308.571 182.882 308.907 182.774C309.255 182.666 309.549 182.51 309.789 182.306L310.545 180.542L311.679 180.686L311.247 183.242C310.995 183.254 310.623 183.338 310.131 183.494C309.699 183.626 309.279 183.728 308.871 183.8C308.475 183.884 307.977 183.926 307.377 183.926ZM306.24 206.926C305.016 206.926 303.978 206.644 303.126 206.08C302.286 205.516 301.65 204.724 301.218 203.704C300.786 202.672 300.57 201.478 300.57 200.122C300.57 198.742 300.828 197.53 301.344 196.486C301.872 195.442 302.592 194.638 303.504 194.074C304.416 193.498 305.442 193.21 306.582 193.21C308.454 193.21 309.882 193.804 310.866 194.992C311.862 196.168 312.36 197.8 312.36 199.888C312.36 201.292 312.09 202.528 311.55 203.596C311.022 204.652 310.29 205.474 309.354 206.062C308.43 206.638 307.392 206.926 306.24 206.926ZM306.474 194.146C305.31 194.146 304.392 194.656 303.72 195.676C303.048 196.684 302.712 198.166 302.712 200.122C302.712 201.922 303.036 203.35 303.684 204.406C304.344 205.45 305.262 205.972 306.438 205.972C307.59 205.972 308.502 205.45 309.174 204.406C309.858 203.362 310.2 201.862 310.2 199.906C310.2 198.094 309.876 196.684 309.228 195.676C308.58 194.656 307.662 194.146 306.474 194.146ZM301.604 217.47L300.164 217.254V216.354H303.512L309.506 225.138L310.514 227.046V217.47L308.948 217.254V216.354H313.196V217.254L311.756 217.47V229.728H310.334L304.214 220.746L302.828 218.37V228.666L304.538 228.846V229.728H300.164V228.846L301.604 228.648V217.47ZM305.442 240.308L302.346 240.416L301.716 244.178H300.528L300.834 239.354H312.048L312.264 244.178H311.13L310.536 240.416L307.422 240.308V251.666L309.978 251.846V252.728H303.102V251.846L305.442 251.666V240.308ZM300.944 274.846L302.438 274.666V263.47L301.034 263.236V262.354H303.392C303.728 262.354 304.184 262.33 304.76 262.282C305.36 262.234 305.828 262.21 306.164 262.21C307.928 262.21 309.182 262.498 309.926 263.074C310.682 263.638 311.06 264.532 311.06 265.756C311.06 266.608 310.82 267.388 310.34 268.096C309.872 268.804 309.224 269.284 308.396 269.536C308.78 269.74 309.134 270.094 309.458 270.598C309.794 271.09 310.202 271.78 310.682 272.668C311.054 273.34 311.336 273.832 311.528 274.144C311.732 274.456 311.924 274.63 312.104 274.666L312.806 274.846V275.728H310.322C310.13 275.728 309.914 275.524 309.674 275.116C309.434 274.696 309.116 274.054 308.72 273.19C308.288 272.242 307.91 271.492 307.586 270.94C307.274 270.376 306.962 270.016 306.65 269.86C305.366 269.86 304.604 269.854 304.364 269.842V274.666L306.146 274.846V275.728H300.944V274.846ZM306.506 268.888C307.274 268.888 307.88 268.636 308.324 268.132C308.768 267.628 308.99 266.878 308.99 265.882C308.99 265.006 308.762 264.34 308.306 263.884C307.862 263.416 307.088 263.182 305.984 263.182C305.6 263.182 305.216 263.206 304.832 263.254C304.592 263.278 304.436 263.29 304.364 263.29V268.87C304.544 268.882 304.916 268.888 305.48 268.888H306.506ZM305.469 286.47L303.795 286.254V285.354H309.087V286.254L307.413 286.47V297.666L309.087 297.864V298.728H303.813V297.846L305.469 297.666V286.47ZM302.614 309.47L301.138 309.254V308.354H303.568C303.976 308.354 304.492 308.33 305.116 308.282C305.692 308.234 306.118 308.21 306.394 308.21C308.05 308.21 309.232 308.468 309.94 308.984C310.66 309.5 311.02 310.256 311.02 311.252C311.02 312.104 310.774 312.836 310.282 313.448C309.79 314.06 309.118 314.444 308.266 314.6C309.418 314.576 310.324 314.846 310.984 315.41C311.644 315.974 311.974 316.742 311.974 317.714C311.974 318.926 311.542 319.916 310.678 320.684C309.826 321.452 308.41 321.836 306.43 321.836C305.998 321.836 305.584 321.818 305.188 321.782C304.252 321.746 303.694 321.728 303.514 321.728H301.12V320.846L302.614 320.666V309.47ZM304.522 314.258C304.69 314.27 305.032 314.276 305.548 314.276H306.538C307.378 314.276 308.014 314.042 308.446 313.574C308.878 313.106 309.094 312.44 309.094 311.576C309.094 310.736 308.878 310.124 308.446 309.74C308.014 309.344 307.276 309.146 306.232 309.146C305.8 309.146 305.356 309.17 304.9 309.218L304.522 309.254V314.258ZM304.522 320.72C304.798 320.816 305.422 320.864 306.394 320.864C307.606 320.864 308.482 320.618 309.022 320.126C309.574 319.622 309.85 318.902 309.85 317.966C309.85 317.042 309.61 316.37 309.13 315.95C308.662 315.53 307.9 315.32 306.844 315.32C305.62 315.32 304.846 315.332 304.522 315.356V320.72ZM306.649 344.872C304.885 344.872 303.583 344.404 302.743 343.468C301.915 342.52 301.501 341.056 301.501 339.076V332.47L300.223 332.254V331.354H305.029V332.254L303.499 332.488V339.274C303.499 340.906 303.787 342.082 304.363 342.802C304.951 343.522 305.791 343.882 306.883 343.882C307.975 343.882 308.791 343.498 309.331 342.73C309.883 341.962 310.159 340.846 310.159 339.382V332.488L308.647 332.254V331.354H312.841V332.254L311.527 332.47V339.292C311.527 341.164 311.083 342.562 310.195 343.486C309.307 344.41 308.125 344.872 306.649 344.872ZM305.442 355.308L302.346 355.416L301.716 359.178H300.528L300.834 354.354H312.048L312.264 359.178H311.13L310.536 355.416L307.422 355.308V366.666L309.978 366.846V367.728H303.102V366.846L305.442 366.666V355.308ZM302.913 378.47L301.437 378.254V377.354H310.599L310.851 380.144H309.825L309.303 378.398L304.839 378.29V383.366L307.845 383.312L308.097 381.818H309.087V385.958H308.097L307.845 384.41L304.839 384.356V389.72L309.915 389.54L310.869 387.272L311.931 387.596L311.409 390.728H301.419V389.846L302.913 389.666V378.47Z" fill="#2DA440" fill-opacity="0.3"/>
<path d="M649.552 184.966C647.571 184.966 646.019 184.368 644.894 183.173C643.774 181.977 643.215 180.293 643.215 178.119C643.215 175.986 643.783 174.308 644.92 173.083C646.062 171.858 647.609 171.246 649.561 171.246C650.961 171.246 652.42 171.642 653.938 172.433V174.357H653.814C652.438 173.203 650.984 172.626 649.455 172.626C648.061 172.626 646.956 173.112 646.142 174.085C645.327 175.052 644.92 176.396 644.92 178.119C644.92 179.83 645.333 181.169 646.159 182.136C646.991 183.097 648.096 183.577 649.473 183.577C650.217 183.577 650.926 183.46 651.6 183.226C652.273 182.985 653.012 182.519 653.814 181.828H653.938V183.762C652.812 184.295 651.937 184.629 651.31 184.764C650.688 184.898 650.103 184.966 649.552 184.966ZM648.444 208.001C646.563 208.001 645.087 207.394 644.015 206.182C642.942 204.963 642.406 203.272 642.406 201.11C642.406 198.954 642.942 197.267 644.015 196.048C645.093 194.823 646.569 194.211 648.444 194.211C650.325 194.211 651.802 194.823 652.874 196.048C653.952 197.267 654.491 198.954 654.491 201.11C654.491 203.261 653.952 204.948 652.874 206.173C651.802 207.392 650.325 208.001 648.444 208.001ZM648.453 195.608C647.082 195.608 646.016 196.089 645.254 197.05C644.492 198.011 644.111 199.364 644.111 201.11C644.111 202.856 644.492 204.21 645.254 205.171C646.016 206.126 647.082 206.603 648.453 206.603C649.818 206.603 650.882 206.126 651.644 205.171C652.405 204.21 652.786 202.856 652.786 201.11C652.786 199.352 652.405 197.996 651.644 197.041C650.882 196.086 649.818 195.608 648.453 195.608ZM653.498 230.728H651.6L644.929 219.232V230.728H643.408V217.483H645.676L651.978 228.347V217.483H653.498V230.728ZM647.636 253.728V241.907H642.934V240.483H653.973V241.907H649.271V253.728H647.636ZM654.764 276.728H652.628L648.269 271.402H645.57V276.728H643.936V263.483H647.688C649.452 263.483 650.712 263.814 651.468 264.477C652.229 265.139 652.61 266.009 652.61 267.087C652.61 268.909 651.717 270.192 649.93 270.936L654.764 276.728ZM645.57 264.872V270.058H647.495C648.708 270.058 649.578 269.811 650.105 269.319C650.633 268.827 650.896 268.109 650.896 267.166C650.896 265.637 649.862 264.872 647.794 264.872H645.57ZM651.002 299.728H645.896V298.507H647.636V287.705H645.896V286.483H651.002V287.705H649.271V298.507H651.002V299.728ZM644.023 322.728V309.483H647.926C648.523 309.483 649.03 309.495 649.446 309.519C649.868 309.542 650.299 309.618 650.738 309.747C651.184 309.876 651.564 310.072 651.881 310.336C652.197 310.594 652.432 310.898 652.584 311.25C652.736 311.602 652.812 312.003 652.812 312.454C652.812 313.626 652.221 314.528 651.037 315.161V315.231C651.934 315.419 652.634 315.814 653.138 316.418C653.642 317.016 653.894 317.76 653.894 318.65C653.894 319.91 653.439 320.906 652.531 321.639C651.629 322.365 650.34 322.728 648.664 322.728H644.023ZM645.658 310.872V314.897H648.022C649.165 314.897 649.965 314.713 650.422 314.344C650.879 313.975 651.107 313.406 651.107 312.639C651.107 312.105 650.926 311.678 650.562 311.355C650.199 311.033 649.285 310.872 647.82 310.872H645.658ZM645.658 316.251V321.34H648.04C649.722 321.34 650.832 321.108 651.371 320.645C651.916 320.177 652.188 319.547 652.188 318.756C652.188 318.24 652.089 317.801 651.89 317.437C651.69 317.068 651.377 316.778 650.949 316.567C650.527 316.356 649.704 316.251 648.479 316.251H645.658ZM653.533 340.473C653.533 342.389 653.097 343.789 652.224 344.674C651.351 345.559 650.091 346.001 648.444 346.001C645.058 346.001 643.364 344.158 643.364 340.473V332.483H644.999V340.622C644.999 342.04 645.283 343.062 645.852 343.689C646.42 344.311 647.284 344.621 648.444 344.621C649.587 344.621 650.448 344.316 651.028 343.707C651.608 343.092 651.898 342.078 651.898 340.666V332.483H653.533V340.473ZM647.636 368.728V356.907H642.934V355.483H653.973V356.907H649.271V368.728H647.636ZM653.138 391.728H644.516V378.483H653.138V379.907H646.15V383.766H652.962V385.189H646.15V390.305H653.138V391.728Z" fill="#2DA440" fill-opacity="0.3"/>
<path d="M282.465 211.938C279.824 211.938 277.754 211.142 276.254 209.548C274.762 207.954 274.016 205.708 274.016 202.81C274.016 199.966 274.773 197.728 276.289 196.095C277.812 194.462 279.875 193.646 282.477 193.646C284.344 193.646 286.289 194.173 288.312 195.228V197.794H288.148C286.312 196.255 284.375 195.485 282.336 195.485C280.477 195.485 279.004 196.134 277.918 197.431C276.832 198.72 276.289 200.513 276.289 202.81C276.289 205.091 276.84 206.876 277.941 208.165C279.051 209.446 280.523 210.087 282.359 210.087C283.352 210.087 284.297 209.931 285.195 209.618C286.094 209.298 287.078 208.677 288.148 207.755H288.312V210.333C286.812 211.044 285.645 211.489 284.809 211.669C283.98 211.849 283.199 211.938 282.465 211.938ZM280.988 241.985C278.48 241.985 276.512 241.177 275.082 239.56C273.652 237.935 272.938 235.681 272.938 232.798C272.938 229.923 273.652 227.673 275.082 226.048C276.52 224.415 278.488 223.599 280.988 223.599C283.496 223.599 285.465 224.415 286.895 226.048C288.332 227.673 289.051 229.923 289.051 232.798C289.051 235.665 288.332 237.915 286.895 239.548C285.465 241.173 283.496 241.985 280.988 241.985ZM281 225.462C279.172 225.462 277.75 226.103 276.734 227.384C275.719 228.665 275.211 230.47 275.211 232.798C275.211 235.126 275.719 236.931 276.734 238.212C277.75 239.485 279.172 240.122 281 240.122C282.82 240.122 284.238 239.485 285.254 238.212C286.27 236.931 286.777 235.126 286.777 232.798C286.777 230.454 286.27 228.646 285.254 227.372C284.238 226.099 282.82 225.462 281 225.462ZM287.727 271.622H285.195L276.301 256.294V271.622H274.273V253.962H277.297L285.699 268.446V253.962H287.727V271.622ZM287.727 301.622H285.195L276.301 286.294V301.622H274.273V283.962H277.297L285.699 298.446V283.962H287.727V301.622ZM287.246 331.622H275.75V313.962H287.246V315.86H277.93V321.005H287.012V322.903H277.93V329.724H287.246V331.622ZM282.465 361.938C279.824 361.938 277.754 361.142 276.254 359.548C274.762 357.954 274.016 355.708 274.016 352.81C274.016 349.966 274.773 347.728 276.289 346.095C277.812 344.462 279.875 343.646 282.477 343.646C284.344 343.646 286.289 344.173 288.312 345.228V347.794H288.148C286.312 346.255 284.375 345.485 282.336 345.485C280.477 345.485 279.004 346.134 277.918 347.431C276.832 348.72 276.289 350.513 276.289 352.81C276.289 355.091 276.84 356.876 277.941 358.165C279.051 359.446 280.523 360.087 282.359 360.087C283.352 360.087 284.297 359.931 285.195 359.618C286.094 359.298 287.078 358.677 288.148 357.755H288.312V360.333C286.812 361.044 285.645 361.489 284.809 361.669C283.98 361.849 283.199 361.938 282.465 361.938ZM279.91 391.622V375.86H273.641V373.962H288.359V375.86H282.09V391.622H279.91Z" fill="#2DA440" fill-opacity="0.3"/>
<path d="M480.232 211.881C478.472 211.881 476.968 211.505 475.72 210.753C474.488 209.985 473.552 208.913 472.912 207.537C472.272 206.161 471.952 204.545 471.952 202.689C471.952 200.897 472.328 199.313 473.08 197.937C473.832 196.561 474.864 195.497 476.176 194.745C477.488 193.977 478.96 193.593 480.592 193.593C481.824 193.593 483.304 193.785 485.032 194.169L485.824 194.313L485.584 198.633H483.976L483.376 195.585C483.152 195.393 482.76 195.233 482.2 195.105C481.656 194.961 480.984 194.889 480.184 194.889C479.16 194.889 478.248 195.185 477.448 195.777C476.648 196.353 476.016 197.209 475.552 198.345C475.104 199.481 474.88 200.841 474.88 202.425C474.88 203.929 475.08 205.297 475.48 206.529C475.88 207.761 476.488 208.745 477.304 209.481C478.12 210.201 479.128 210.561 480.328 210.561C481.176 210.561 481.824 210.489 482.272 210.345C482.736 210.201 483.128 209.993 483.448 209.721L484.456 207.369L485.968 207.561L485.392 210.969C485.056 210.985 484.56 211.097 483.904 211.305C483.328 211.481 482.768 211.617 482.224 211.713C481.696 211.825 481.032 211.881 480.232 211.881ZM478.716 241.881C477.084 241.881 475.7 241.505 474.564 240.753C473.444 240.001 472.596 238.945 472.02 237.585C471.444 236.209 471.156 234.617 471.156 232.809C471.156 230.969 471.5 229.353 472.188 227.961C472.892 226.569 473.852 225.497 475.068 224.745C476.284 223.977 477.652 223.593 479.172 223.593C481.668 223.593 483.572 224.385 484.884 225.969C486.212 227.537 486.876 229.713 486.876 232.497C486.876 234.369 486.516 236.017 485.796 237.441C485.092 238.849 484.116 239.945 482.868 240.729C481.636 241.497 480.252 241.881 478.716 241.881ZM479.028 224.841C477.476 224.841 476.252 225.521 475.356 226.881C474.46 228.225 474.012 230.201 474.012 232.809C474.012 235.209 474.444 237.113 475.308 238.521C476.188 239.913 477.412 240.609 478.98 240.609C480.516 240.609 481.732 239.913 482.628 238.521C483.54 237.129 483.996 235.129 483.996 232.521C483.996 230.105 483.564 228.225 482.7 226.881C481.836 225.521 480.612 224.841 479.028 224.841ZM472.534 255.273L470.614 254.985V253.785H475.078L483.07 265.497L484.414 268.041V255.273L482.326 254.985V253.785H487.99V254.985L486.07 255.273V271.617H484.174L476.014 259.641L474.166 256.473V270.201L476.446 270.441V271.617H470.614V270.441L472.534 270.177V255.273ZM472.534 285.273L470.614 284.985V283.785H475.078L483.07 295.497L484.414 298.041V285.273L482.326 284.985V283.785H487.99V284.985L486.07 285.273V301.617H484.174L476.014 289.641L474.166 286.473V300.201L476.446 300.441V301.617H470.614V300.441L472.534 300.177V285.273ZM474.28 315.273L472.312 314.985V313.785H484.528L484.864 317.505H483.496L482.8 315.177L476.848 315.033V321.801L480.856 321.729L481.192 319.737H482.512V325.257H481.192L480.856 323.193L476.848 323.121V330.273L483.616 330.033L484.888 327.009L486.304 327.441L485.608 331.617H472.288V330.441L474.28 330.201V315.273ZM480.232 361.881C478.472 361.881 476.968 361.505 475.72 360.753C474.488 359.985 473.552 358.913 472.912 357.537C472.272 356.161 471.952 354.545 471.952 352.689C471.952 350.897 472.328 349.313 473.08 347.937C473.832 346.561 474.864 345.497 476.176 344.745C477.488 343.977 478.96 343.593 480.592 343.593C481.824 343.593 483.304 343.785 485.032 344.169L485.824 344.313L485.584 348.633H483.976L483.376 345.585C483.152 345.393 482.76 345.233 482.2 345.105C481.656 344.961 480.984 344.889 480.184 344.889C479.16 344.889 478.248 345.185 477.448 345.777C476.648 346.353 476.016 347.209 475.552 348.345C475.104 349.481 474.88 350.841 474.88 352.425C474.88 353.929 475.08 355.297 475.48 356.529C475.88 357.761 476.488 358.745 477.304 359.481C478.12 360.201 479.128 360.561 480.328 360.561C481.176 360.561 481.824 360.489 482.272 360.345C482.736 360.201 483.128 359.993 483.448 359.721L484.456 357.369L485.968 357.561L485.392 360.969C485.056 360.985 484.56 361.097 483.904 361.305C483.328 361.481 482.768 361.617 482.224 361.713C481.696 361.825 481.032 361.881 480.232 361.881ZM477.651 375.057L473.523 375.201L472.683 380.217H471.099L471.507 373.785H486.459L486.747 380.217H485.235L484.443 375.201L480.291 375.057V390.201L483.699 390.441V391.617H474.531V390.441L477.651 390.201V375.057Z" fill="#2DA440" fill-opacity="0.3"/>
<path d="M597.964 90.8796C594.444 90.8796 591.436 90.1276 588.94 88.6236C586.476 87.0876 584.604 84.9436 583.324 82.1916C582.044 79.4396 581.404 76.2076 581.404 72.4956C581.404 68.9116 582.156 65.7436 583.66 62.9916C585.164 60.2396 587.228 58.1116 589.852 56.6076C592.476 55.0716 595.42 54.3036 598.684 54.3036C601.148 54.3036 604.108 54.6876 607.564 55.4556L609.148 55.7436L608.668 64.3836H605.452L604.252 58.2876C603.804 57.9036 603.02 57.5836 601.9 57.3276C600.812 57.0396 599.468 56.8956 597.868 56.8956C595.82 56.8956 593.996 57.4876 592.396 58.6716C590.796 59.8236 589.532 61.5356 588.604 63.8076C587.708 66.0796 587.26 68.7996 587.26 71.9676C587.26 74.9756 587.66 77.7116 588.46 80.1756C589.26 82.6396 590.476 84.6076 592.108 86.0796C593.74 87.5196 595.756 88.2396 598.156 88.2396C599.852 88.2396 601.148 88.0956 602.044 87.8076C602.972 87.5196 603.756 87.1036 604.396 86.5596L606.412 81.8556L609.436 82.2396L608.284 89.0556C607.612 89.0876 606.62 89.3116 605.308 89.7276C604.156 90.0796 603.036 90.3516 601.948 90.5436C600.892 90.7676 599.564 90.8796 597.964 90.8796ZM580.81 148L584.794 147.52V117.664L581.05 117.04V114.688H587.338C588.234 114.688 589.45 114.624 590.986 114.496C592.586 114.368 593.834 114.304 594.73 114.304C599.434 114.304 602.778 115.072 604.762 116.608C606.778 118.112 607.786 120.496 607.786 123.76C607.786 126.032 607.146 128.112 605.866 130C604.618 131.888 602.89 133.168 600.682 133.84C601.706 134.384 602.65 135.328 603.514 136.672C604.41 137.984 605.498 139.824 606.778 142.192C607.77 143.984 608.522 145.296 609.034 146.128C609.578 146.96 610.09 147.424 610.57 147.52L612.442 148V150.352H605.818C605.306 150.352 604.73 149.808 604.09 148.72C603.45 147.6 602.602 145.888 601.546 143.584C600.394 141.056 599.386 139.056 598.522 137.584C597.69 136.08 596.858 135.12 596.026 134.704C592.602 134.704 590.57 134.688 589.93 134.656V147.52L594.682 148V150.352H580.81V148ZM595.642 132.112C597.69 132.112 599.306 131.44 600.49 130.096C601.674 128.752 602.266 126.752 602.266 124.096C602.266 121.76 601.658 119.984 600.442 118.768C599.258 117.52 597.194 116.896 594.25 116.896C593.226 116.896 592.202 116.96 591.178 117.088C590.538 117.152 590.122 117.184 589.93 117.184V132.064C590.41 132.096 591.402 132.112 592.906 132.112H595.642ZM586.059 177.664L582.123 177.088V174.688H606.555L607.227 182.128H604.491L603.099 177.472L591.195 177.184V190.72L599.211 190.576L599.883 186.592H602.523V197.632H599.883L599.211 193.504L591.195 193.36V207.664L604.731 207.184L607.275 201.136L610.107 202L608.715 210.352H582.075V208L586.059 207.52V177.664ZM592.803 234.4H598.083L609.747 267.52L612.723 268V270.352H600.051V268L604.035 267.52L601.779 260.416H587.763L585.507 267.52L589.635 268V270.352H578.259V268L581.235 267.52L592.803 234.4ZM595.827 242.08L594.627 237.856L593.475 242.176L588.627 257.584H600.867L595.827 242.08ZM592.803 297.232L584.547 297.52L582.867 307.552H579.699L580.515 294.688H610.419L610.995 307.552H607.971L606.387 297.52L598.083 297.232V327.52L604.899 328V330.352H586.563V328L592.803 327.52V297.232ZM586.059 357.664L582.123 357.088V354.688H606.555L607.227 362.128H604.491L603.099 357.472L591.195 357.184V370.72L599.211 370.576L599.883 366.592H602.523V377.632H599.883L599.211 373.504L591.195 373.36V387.664L604.731 387.184L607.275 381.136L610.107 382L608.715 390.352H582.075V388L586.059 387.52V357.664Z" fill="#2DA440" fill-opacity="0.3"/>
</svg>
