<svg class="background mobile" width="100%" height="100%" preserveAspectRatio="none" viewBox="0 -70 338 470" fill="none" xmlns="http://www.w3.org/2000/svg">
<path d="M18.0011 86.6328C12.7199 86.6328 8.57924 85.0391 5.57924 81.8516C2.59487 78.6641 1.10268 74.1719 1.10268 68.375C1.10268 62.6875 2.6183 58.2109 5.64955 54.9453C8.69643 51.6797 12.8214 50.0469 18.0246 50.0469C21.7589 50.0469 25.6496 51.1016 29.6964 53.2109V58.3438H29.3683C25.6964 55.2656 21.8214 53.7266 17.7433 53.7266C14.0246 53.7266 11.0792 55.0234 8.90737 57.6172C6.73549 60.1953 5.64955 63.7812 5.64955 68.375C5.64955 72.9375 6.75112 76.5078 8.95424 79.0859C11.173 81.6484 14.1183 82.9297 17.7902 82.9297C19.7746 82.9297 21.6652 82.6172 23.4621 81.9922C25.2589 81.3516 27.2277 80.1094 29.3683 78.2656H29.6964V83.4219C26.6964 84.8438 24.3605 85.7344 22.6886 86.0938C21.0324 86.4531 19.4699 86.6328 18.0011 86.6328ZM31.8996 147H26.2042L14.5792 132.797H7.38393V147H3.02455V111.68H13.0324C17.7355 111.68 21.0949 112.562 23.1105 114.328C25.1417 116.094 26.1574 118.414 26.1574 121.289C26.1574 126.148 23.7746 129.57 19.0089 131.555L31.8996 147ZM7.38393 115.383V129.211H12.5167C15.7511 129.211 18.0714 128.555 19.4777 127.242C20.8839 125.93 21.5871 124.016 21.5871 121.5C21.5871 117.422 18.8292 115.383 13.3136 115.383H7.38393ZM27.5636 208H4.57143V172.68H27.5636V176.477H8.9308V186.766H27.0949V190.562H8.9308V204.203H27.5636V208ZM22.7121 255.289L16.3605 237.875L10.0324 255.289H22.7121ZM27.6574 269L24.0246 258.922H8.69643L5.06362 269H0.633929L13.7121 233.68H19.2667L32.3214 269H27.6574ZM12.8917 330V298.477H0.352678V294.68H29.7902V298.477H17.2511V330H12.8917ZM27.5636 391H4.57143V355.68H27.5636V359.477H8.9308V369.766H27.0949V373.562H8.9308V387.203H27.5636V391Z" fill="#2DA440" fill-opacity="0.3"/>
<path d="M300.251 68V20.9062H314.126C316.251 20.9062 318.053 20.9479 319.532 21.0312C321.032 21.1146 322.564 21.3854 324.126 21.8438C325.709 22.3021 327.064 23 328.189 23.9375C329.314 24.8542 330.147 25.9375 330.689 27.1875C331.23 28.4375 331.501 29.8646 331.501 31.4688C331.501 35.6354 329.397 38.8438 325.189 41.0938V41.3438C328.376 42.0104 330.866 43.4167 332.657 45.5625C334.449 47.6875 335.345 50.3333 335.345 53.5C335.345 57.9792 333.73 61.5208 330.501 64.125C327.293 66.7083 322.709 68 316.751 68H300.251ZM306.064 25.8438V40.1562H314.47C318.532 40.1562 321.376 39.5 323.001 38.1875C324.626 36.875 325.439 34.8542 325.439 32.125C325.439 30.2292 324.793 28.7083 323.501 27.5625C322.209 26.4167 318.959 25.8438 313.751 25.8438H306.064ZM306.064 44.9688V63.0625H314.532C320.511 63.0625 324.459 62.2396 326.376 60.5938C328.314 58.9271 329.282 56.6875 329.282 53.875C329.282 52.0417 328.928 50.4792 328.22 49.1875C327.511 47.875 326.397 46.8438 324.876 46.0938C323.376 45.3438 320.449 44.9688 316.095 44.9688H306.064ZM334.064 130.312C334.064 137.125 332.511 142.104 329.407 145.25C326.303 148.396 321.824 149.969 315.97 149.969C303.928 149.969 297.907 143.417 297.907 130.312V101.906H303.72V130.844C303.72 135.885 304.73 139.521 306.751 141.75C308.772 143.958 311.845 145.062 315.97 145.062C320.032 145.062 323.095 143.979 325.157 141.812C327.22 139.625 328.251 136.021 328.251 131V101.906H334.064V130.312ZM325.064 230H306.907V225.656H313.095V187.25H306.907V182.906H325.064V187.25H318.907V225.656H325.064V230ZM333.314 311H303.97V263.906H309.782V305.938H333.314V311ZM297.814 392V344.906H309.157C315.782 344.906 320.991 345.771 324.782 347.5C328.574 349.229 331.564 351.875 333.751 355.438C335.959 358.979 337.064 363.333 337.064 368.5C337.064 374.917 334.98 380.438 330.814 385.062C326.668 389.688 319.491 392 309.282 392H297.814ZM303.626 349.844V387.062H309.689C317.126 387.062 322.532 385.49 325.907 382.344C329.282 379.198 330.97 374.552 330.97 368.406C330.97 362.573 329.261 358.021 325.845 354.75C322.428 351.479 317.043 349.844 309.689 349.844H303.626Z" fill="#2DA440" fill-opacity="0.3"/>
<path d="M233.989 212.264C232.229 212.264 230.725 211.888 229.477 211.136C228.245 210.368 227.309 209.296 226.669 207.92C226.029 206.544 225.709 204.928 225.709 203.072C225.709 201.28 226.085 199.696 226.837 198.32C227.589 196.944 228.621 195.88 229.933 195.128C231.245 194.36 232.717 193.976 234.349 193.976C235.581 193.976 237.061 194.168 238.789 194.552L239.581 194.696L239.341 199.016H237.733L237.133 195.968C236.909 195.776 236.517 195.616 235.957 195.488C235.413 195.344 234.741 195.272 233.941 195.272C232.917 195.272 232.005 195.568 231.205 196.16C230.405 196.736 229.773 197.592 229.309 198.728C228.861 199.864 228.637 201.224 228.637 202.808C228.637 204.312 228.837 205.68 229.237 206.912C229.637 208.144 230.245 209.128 231.061 209.864C231.877 210.584 232.885 210.944 234.085 210.944C234.933 210.944 235.581 210.872 236.029 210.728C236.493 210.584 236.885 210.376 237.205 210.104L238.213 207.752L239.725 207.944L239.149 211.352C238.813 211.368 238.317 211.48 237.661 211.688C237.085 211.864 236.525 212 235.981 212.096C235.453 212.208 234.789 212.264 233.989 212.264ZM232.472 242.264C230.84 242.264 229.456 241.888 228.32 241.136C227.2 240.384 226.352 239.328 225.776 237.968C225.2 236.592 224.912 235 224.912 233.192C224.912 231.352 225.256 229.736 225.944 228.344C226.648 226.952 227.608 225.88 228.824 225.128C230.04 224.36 231.408 223.976 232.928 223.976C235.424 223.976 237.328 224.768 238.64 226.352C239.968 227.92 240.632 230.096 240.632 232.88C240.632 234.752 240.272 236.4 239.552 237.824C238.848 239.232 237.872 240.328 236.624 241.112C235.392 241.88 234.008 242.264 232.472 242.264ZM232.784 225.224C231.232 225.224 230.008 225.904 229.112 227.264C228.216 228.608 227.768 230.584 227.768 233.192C227.768 235.592 228.2 237.496 229.064 238.904C229.944 240.296 231.168 240.992 232.736 240.992C234.272 240.992 235.488 240.296 236.384 238.904C237.296 237.512 237.752 235.512 237.752 232.904C237.752 230.488 237.32 228.608 236.456 227.264C235.592 225.904 234.368 225.224 232.784 225.224ZM226.291 255.656L224.371 255.368V254.168H228.835L236.827 265.88L238.171 268.424V255.656L236.083 255.368V254.168H241.747V255.368L239.827 255.656V272H237.931L229.771 260.024L227.923 256.856V270.584L230.203 270.824V272H224.371V270.824L226.291 270.56V255.656ZM226.291 285.656L224.371 285.368V284.168H228.835L236.827 295.88L238.171 298.424V285.656L236.083 285.368V284.168H241.747V285.368L239.827 285.656V302H237.931L229.771 290.024L227.923 286.856V300.584L230.203 300.824V302H224.371V300.824L226.291 300.56V285.656ZM228.036 315.656L226.068 315.368V314.168H238.284L238.62 317.888H237.252L236.556 315.56L230.604 315.416V322.184L234.612 322.112L234.948 320.12H236.268V325.64H234.948L234.612 323.576L230.604 323.504V330.656L237.372 330.416L238.644 327.392L240.06 327.824L239.364 332H226.044V330.824L228.036 330.584V315.656ZM233.989 362.264C232.229 362.264 230.725 361.888 229.477 361.136C228.245 360.368 227.309 359.296 226.669 357.92C226.029 356.544 225.709 354.928 225.709 353.072C225.709 351.28 226.085 349.696 226.837 348.32C227.589 346.944 228.621 345.88 229.933 345.128C231.245 344.36 232.717 343.976 234.349 343.976C235.581 343.976 237.061 344.168 238.789 344.552L239.581 344.696L239.341 349.016H237.733L237.133 345.968C236.909 345.776 236.517 345.616 235.957 345.488C235.413 345.344 234.741 345.272 233.941 345.272C232.917 345.272 232.005 345.568 231.205 346.16C230.405 346.736 229.773 347.592 229.309 348.728C228.861 349.864 228.637 351.224 228.637 352.808C228.637 354.312 228.837 355.68 229.237 356.912C229.637 358.144 230.245 359.128 231.061 359.864C231.877 360.584 232.885 360.944 234.085 360.944C234.933 360.944 235.581 360.872 236.029 360.728C236.493 360.584 236.885 360.376 237.205 360.104L238.213 357.752L239.725 357.944L239.149 361.352C238.813 361.368 238.317 361.48 237.661 361.688C237.085 361.864 236.525 362 235.981 362.096C235.453 362.208 234.789 362.264 233.989 362.264ZM231.408 375.44L227.28 375.584L226.44 380.6H224.856L225.264 374.168H240.216L240.504 380.6H238.992L238.2 375.584L234.048 375.44V390.584L237.456 390.824V392H228.288V390.824L231.408 390.584V375.44Z" fill="#2DA440" fill-opacity="0.3"/>
<path d="M68.5163 209.154C67.4896 209.154 66.6123 208.935 65.8843 208.496C65.1656 208.048 64.6196 207.423 64.2463 206.62C63.873 205.817 63.6863 204.875 63.6863 203.792C63.6863 202.747 63.9056 201.823 64.3443 201.02C64.783 200.217 65.385 199.597 66.1503 199.158C66.9156 198.71 67.7743 198.486 68.7263 198.486C69.445 198.486 70.3083 198.598 71.3163 198.822L71.7783 198.906L71.6383 201.426H70.7003L70.3503 199.648C70.2196 199.536 69.991 199.443 69.6643 199.368C69.347 199.284 68.955 199.242 68.4883 199.242C67.891 199.242 67.359 199.415 66.8923 199.76C66.4256 200.096 66.057 200.595 65.7863 201.258C65.525 201.921 65.3943 202.714 65.3943 203.638C65.3943 204.515 65.511 205.313 65.7443 206.032C65.9776 206.751 66.3323 207.325 66.8083 207.754C67.2843 208.174 67.8723 208.384 68.5723 208.384C69.067 208.384 69.445 208.342 69.7063 208.258C69.977 208.174 70.2056 208.053 70.3923 207.894L70.9803 206.522L71.8623 206.634L71.5263 208.622C71.3303 208.631 71.041 208.697 70.6583 208.818C70.3223 208.921 69.9956 209 69.6783 209.056C69.3703 209.121 68.983 209.154 68.5163 209.154ZM67.6318 227.154C66.6798 227.154 65.8725 226.935 65.2098 226.496C64.5565 226.057 64.0618 225.441 63.7258 224.648C63.3898 223.845 63.2218 222.917 63.2218 221.862C63.2218 220.789 63.4225 219.846 63.8238 219.034C64.2345 218.222 64.7945 217.597 65.5038 217.158C66.2131 216.71 67.0111 216.486 67.8978 216.486C69.3538 216.486 70.4645 216.948 71.2298 217.872C72.0045 218.787 72.3918 220.056 72.3918 221.68C72.3918 222.772 72.1818 223.733 71.7618 224.564C71.3511 225.385 70.7818 226.025 70.0538 226.482C69.3351 226.93 68.5278 227.154 67.6318 227.154ZM67.8138 217.214C66.9085 217.214 66.1945 217.611 65.6718 218.404C65.1491 219.188 64.8878 220.341 64.8878 221.862C64.8878 223.262 65.1398 224.373 65.6438 225.194C66.1571 226.006 66.8711 226.412 67.7858 226.412C68.6818 226.412 69.3911 226.006 69.9138 225.194C70.4458 224.382 70.7118 223.215 70.7118 221.694C70.7118 220.285 70.4598 219.188 69.9558 218.404C69.4518 217.611 68.7378 217.214 67.8138 217.214ZM65.195 235.466L64.061 235.298V234.598H68.079V235.298L66.693 235.466V244.174L70.305 244.048L71.131 241.696L71.985 241.822L71.495 245H64.033V244.314L65.195 244.174V235.466ZM65.195 253.466L64.061 253.298V252.598H68.079V253.298L66.693 253.466V262.174L70.305 262.048L71.131 259.696L71.985 259.822L71.495 263H64.033V262.314L65.195 262.174V253.466ZM67.0109 270.514H68.5509L71.9529 280.174L72.8209 280.314V281H69.1249V280.314L70.2869 280.174L69.6289 278.102H65.5409L64.8829 280.174L66.0869 280.314V281H62.7689V280.314L63.6369 280.174L67.0109 270.514ZM67.8929 272.754L67.5429 271.522L67.2069 272.782L65.7929 277.276H69.3629L67.8929 272.754ZM64.8116 289.466L63.6636 289.298V288.598H65.5536C65.8709 288.598 66.2722 288.579 66.7576 288.542C67.2056 288.505 67.5369 288.486 67.7516 288.486C69.0396 288.486 69.9589 288.687 70.5096 289.088C71.0696 289.489 71.3496 290.077 71.3496 290.852C71.3496 291.515 71.1582 292.084 70.7756 292.56C70.3929 293.036 69.8702 293.335 69.2076 293.456C70.1036 293.437 70.8082 293.647 71.3216 294.086C71.8349 294.525 72.0916 295.122 72.0916 295.878C72.0916 296.821 71.7556 297.591 71.0836 298.188C70.4209 298.785 69.3196 299.084 67.7796 299.084C67.4436 299.084 67.1216 299.07 66.8136 299.042C66.0856 299.014 65.6516 299 65.5116 299H63.6496V298.314L64.8116 298.174V289.466ZM66.2956 293.19C66.4262 293.199 66.6922 293.204 67.0936 293.204H67.8636C68.5169 293.204 69.0116 293.022 69.3476 292.658C69.6836 292.294 69.8516 291.776 69.8516 291.104C69.8516 290.451 69.6836 289.975 69.3476 289.676C69.0116 289.368 68.4376 289.214 67.6256 289.214C67.2896 289.214 66.9442 289.233 66.5896 289.27L66.2956 289.298V293.19ZM66.2956 298.216C66.5102 298.291 66.9956 298.328 67.7516 298.328C68.6942 298.328 69.3756 298.137 69.7956 297.754C70.2249 297.362 70.4396 296.802 70.4396 296.074C70.4396 295.355 70.2529 294.833 69.8796 294.506C69.5156 294.179 68.9229 294.016 68.1016 294.016C67.1496 294.016 66.5476 294.025 66.2956 294.044V298.216ZM67.6318 317.154C66.6798 317.154 65.8725 316.935 65.2098 316.496C64.5565 316.057 64.0618 315.441 63.7258 314.648C63.3898 313.845 63.2218 312.917 63.2218 311.862C63.2218 310.789 63.4225 309.846 63.8238 309.034C64.2345 308.222 64.7945 307.597 65.5038 307.158C66.2131 306.71 67.0111 306.486 67.8978 306.486C69.3538 306.486 70.4645 306.948 71.2298 307.872C72.0045 308.787 72.3918 310.056 72.3918 311.68C72.3918 312.772 72.1818 313.733 71.7618 314.564C71.3511 315.385 70.7818 316.025 70.0538 316.482C69.3351 316.93 68.5278 317.154 67.6318 317.154ZM67.8138 307.214C66.9085 307.214 66.1945 307.611 65.6718 308.404C65.1491 309.188 64.8878 310.341 64.8878 311.862C64.8878 313.262 65.1398 314.373 65.6438 315.194C66.1571 316.006 66.8711 316.412 67.7858 316.412C68.6818 316.412 69.3911 316.006 69.9138 315.194C70.4458 314.382 70.7118 313.215 70.7118 311.694C70.7118 310.285 70.4598 309.188 69.9558 308.404C69.4518 307.611 68.7378 307.214 67.8138 307.214ZM63.5128 334.314L64.6748 334.174V325.466L63.5828 325.284V324.598H65.4168C65.6782 324.598 66.0328 324.579 66.4808 324.542C66.9475 324.505 67.3115 324.486 67.5728 324.486C68.9448 324.486 69.9202 324.71 70.4988 325.158C71.0868 325.597 71.3808 326.292 71.3808 327.244C71.3808 327.907 71.1942 328.513 70.8208 329.064C70.4568 329.615 69.9528 329.988 69.3088 330.184C69.6075 330.343 69.8828 330.618 70.1348 331.01C70.3962 331.393 70.7135 331.929 71.0868 332.62C71.3762 333.143 71.5955 333.525 71.7448 333.768C71.9035 334.011 72.0528 334.146 72.1928 334.174L72.7388 334.314V335H70.8068C70.6575 335 70.4895 334.841 70.3028 334.524C70.1162 334.197 69.8688 333.698 69.5608 333.026C69.2248 332.289 68.9308 331.705 68.6788 331.276C68.4362 330.837 68.1935 330.557 67.9508 330.436C66.9522 330.436 66.3595 330.431 66.1728 330.422V334.174L67.5588 334.314V335H63.5128V334.314ZM67.8388 329.68C68.4362 329.68 68.9075 329.484 69.2528 329.092C69.5982 328.7 69.7708 328.117 69.7708 327.342C69.7708 326.661 69.5935 326.143 69.2388 325.788C68.8935 325.424 68.2915 325.242 67.4328 325.242C67.1342 325.242 66.8355 325.261 66.5368 325.298C66.3502 325.317 66.2288 325.326 66.1728 325.326V329.666C66.3128 329.675 66.6022 329.68 67.0408 329.68H67.8388ZM67.0109 342.514H68.5509L71.9529 352.174L72.8209 352.314V353H69.1249V352.314L70.2869 352.174L69.6289 350.102H65.5409L64.8829 352.174L66.0869 352.314V353H62.7689V352.314L63.6369 352.174L67.0109 342.514ZM67.8929 344.754L67.5429 343.522L67.2069 344.782L65.7929 349.276H69.3629L67.8929 344.754ZM67.0109 361.34L64.6029 361.424L64.1129 364.35H63.1889L63.4269 360.598H72.1489L72.3169 364.35H71.4349L70.9729 361.424L68.5509 361.34V370.174L70.5389 370.314V371H65.1909V370.314L67.0109 370.174V361.34ZM65.044 379.466L63.896 379.298V378.598H71.022L71.218 380.768H70.42L70.014 379.41L66.542 379.326V383.274L68.88 383.232L69.076 382.07H69.846V385.29H69.076L68.88 384.086L66.542 384.044V388.216L70.49 388.076L71.232 386.312L72.058 386.564L71.652 389H63.882V388.314L65.044 388.174V379.466Z" fill="#2DA440" fill-opacity="0.3"/>
<path d="M148.488 255.237C146.508 255.237 144.955 254.64 143.83 253.444C142.711 252.249 142.151 250.564 142.151 248.391C142.151 246.258 142.72 244.579 143.856 243.354C144.999 242.13 146.546 241.518 148.497 241.518C149.897 241.518 151.356 241.913 152.874 242.704V244.629H152.751C151.374 243.475 149.921 242.897 148.391 242.897C146.997 242.897 145.892 243.384 145.078 244.356C144.263 245.323 143.856 246.668 143.856 248.391C143.856 250.102 144.269 251.44 145.096 252.407C145.928 253.368 147.032 253.849 148.409 253.849C149.153 253.849 149.862 253.731 150.536 253.497C151.21 253.257 151.948 252.791 152.751 252.1H152.874V254.033C151.749 254.566 150.873 254.9 150.246 255.035C149.625 255.17 149.039 255.237 148.488 255.237ZM147.381 278.272C145.5 278.272 144.023 277.666 142.951 276.453C141.879 275.234 141.343 273.544 141.343 271.382C141.343 269.226 141.879 267.538 142.951 266.319C144.029 265.095 145.506 264.482 147.381 264.482C149.262 264.482 150.738 265.095 151.81 266.319C152.888 267.538 153.428 269.226 153.428 271.382C153.428 273.532 152.888 275.22 151.81 276.444C150.738 277.663 149.262 278.272 147.381 278.272ZM147.389 265.88C146.018 265.88 144.952 266.36 144.19 267.321C143.429 268.282 143.048 269.636 143.048 271.382C143.048 273.128 143.429 274.481 144.19 275.442C144.952 276.397 146.018 276.875 147.389 276.875C148.755 276.875 149.818 276.397 150.58 275.442C151.342 274.481 151.722 273.128 151.722 271.382C151.722 269.624 151.342 268.268 150.58 267.312C149.818 266.357 148.755 265.88 147.389 265.88ZM152.434 301H150.536L143.865 289.504V301H142.345V287.755H144.612L150.914 298.618V287.755H152.434V301ZM152.434 324H150.536L143.865 312.504V324H142.345V310.755H144.612L150.914 321.618V310.755H152.434V324ZM152.074 347H143.452V333.755H152.074V335.179H145.087V339.037H151.898V340.461H145.087V345.576H152.074V347ZM148.488 370.237C146.508 370.237 144.955 369.64 143.83 368.444C142.711 367.249 142.151 365.564 142.151 363.391C142.151 361.258 142.72 359.579 143.856 358.354C144.999 357.13 146.546 356.518 148.497 356.518C149.897 356.518 151.356 356.913 152.874 357.704V359.629H152.751C151.374 358.475 149.921 357.897 148.391 357.897C146.997 357.897 145.892 358.384 145.078 359.356C144.263 360.323 143.856 361.668 143.856 363.391C143.856 365.102 144.269 366.44 145.096 367.407C145.928 368.368 147.032 368.849 148.409 368.849C149.153 368.849 149.862 368.731 150.536 368.497C151.21 368.257 151.948 367.791 152.751 367.1H152.874V369.033C151.749 369.566 150.873 369.9 150.246 370.035C149.625 370.17 149.039 370.237 148.488 370.237ZM146.572 393V381.179H141.87V379.755H152.909V381.179H148.207V393H146.572Z" fill="#2DA440" fill-opacity="0.3"/>
<path d="M115.675 273H108.011V261.227H115.675V262.492H109.464V265.922H115.519V267.188H109.464V271.734H115.675V273ZM106.964 293V281.227H109.8C111.456 281.227 112.758 281.443 113.706 281.875C114.654 282.307 115.402 282.969 115.948 283.859C116.501 284.745 116.777 285.833 116.777 287.125C116.777 288.729 116.256 290.109 115.214 291.266C114.178 292.422 112.383 293 109.831 293H106.964ZM108.417 282.461V291.766H109.933C111.792 291.766 113.144 291.372 113.988 290.586C114.831 289.799 115.253 288.638 115.253 287.102C115.253 285.643 114.826 284.505 113.972 283.688C113.118 282.87 111.771 282.461 109.933 282.461H108.417ZM116.027 308.328C116.027 310.031 115.639 311.276 114.863 312.062C114.087 312.849 112.967 313.242 111.503 313.242C108.493 313.242 106.988 311.604 106.988 308.328V301.227H108.441V308.461C108.441 309.721 108.693 310.63 109.198 311.188C109.704 311.74 110.472 312.016 111.503 312.016C112.519 312.016 113.284 311.745 113.8 311.203C114.316 310.656 114.573 309.755 114.573 308.5V301.227H116.027V308.328ZM112.488 333.211C110.727 333.211 109.347 332.68 108.347 331.617C107.352 330.555 106.855 329.057 106.855 327.125C106.855 325.229 107.36 323.737 108.37 322.648C109.386 321.56 110.761 321.016 112.495 321.016C113.74 321.016 115.037 321.367 116.386 322.07V323.781H116.277C115.053 322.755 113.761 322.242 112.402 322.242C111.162 322.242 110.18 322.674 109.456 323.539C108.732 324.398 108.37 325.594 108.37 327.125C108.37 328.646 108.738 329.836 109.472 330.695C110.212 331.549 111.193 331.977 112.417 331.977C113.079 331.977 113.709 331.872 114.308 331.664C114.907 331.451 115.563 331.036 116.277 330.422H116.386V332.141C115.386 332.615 114.607 332.911 114.05 333.031C113.498 333.151 112.977 333.211 112.488 333.211ZM114.058 348.43L111.941 342.625L109.831 348.43H114.058ZM115.706 353L114.495 349.641H109.386L108.175 353H106.698L111.058 341.227H112.909L117.261 353H115.706ZM110.784 373V362.492H106.605V361.227H116.417V362.492H112.238V373H110.784ZM115.675 393H108.011V381.227H115.675V382.492H109.464V385.922H115.519V387.188H109.464V391.734H115.675V393Z" fill="#2DA440" fill-opacity="0.3"/>
<path d="M163.177 262.104L161.865 261.912V261.112H170.009L170.233 263.592H169.321L168.857 262.04L164.889 261.944V266.456L167.561 266.408L167.785 265.08H168.665V268.76H167.785L167.561 267.384L164.889 267.336V272.104L169.401 271.944L170.249 269.928L171.193 270.216L170.729 273H161.849V272.216L163.177 272.056V262.104ZM162.326 282.104L161.078 281.912V281.112H163.174C163.505 281.112 163.979 281.091 164.598 281.048C165.217 281.005 165.681 280.984 165.99 280.984C167.974 280.984 169.446 281.485 170.406 282.488C171.377 283.48 171.862 284.877 171.862 286.68C171.862 287.939 171.611 289.059 171.11 290.04C170.619 291.011 169.926 291.768 169.03 292.312C168.134 292.856 167.105 293.128 165.942 293.128C165.686 293.128 165.249 293.107 164.63 293.064C163.99 293.021 163.51 293 163.19 293H160.998V292.216L162.326 292.056V282.104ZM164.022 292.104C164.395 292.189 164.875 292.232 165.462 292.232H165.942C166.742 292.221 167.446 292.019 168.054 291.624C168.673 291.229 169.153 290.643 169.494 289.864C169.835 289.075 170.006 288.12 170.006 287C170.006 285.315 169.638 284.035 168.902 283.16C168.177 282.285 167.078 281.848 165.606 281.848C165.297 281.848 164.929 281.869 164.502 281.912C164.321 281.944 164.161 281.96 164.022 281.96V292.104ZM166.499 313.128C164.931 313.128 163.773 312.712 163.027 311.88C162.291 311.037 161.923 309.736 161.923 307.976V302.104L160.787 301.912V301.112H165.059V301.912L163.699 302.12V308.152C163.699 309.603 163.955 310.648 164.467 311.288C164.989 311.928 165.736 312.248 166.707 312.248C167.677 312.248 168.403 311.907 168.883 311.224C169.373 310.541 169.619 309.549 169.619 308.248V302.12L168.275 301.912V301.112H172.003V301.912L170.835 302.104V308.168C170.835 309.832 170.44 311.075 169.651 311.896C168.861 312.717 167.811 313.128 166.499 313.128ZM167.146 333.176C165.973 333.176 164.97 332.925 164.138 332.424C163.317 331.912 162.693 331.197 162.266 330.28C161.839 329.363 161.626 328.285 161.626 327.048C161.626 325.853 161.877 324.797 162.378 323.88C162.879 322.963 163.567 322.253 164.442 321.752C165.317 321.24 166.298 320.984 167.386 320.984C168.207 320.984 169.194 321.112 170.346 321.368L170.874 321.464L170.714 324.344H169.642L169.242 322.312C169.093 322.184 168.831 322.077 168.458 321.992C168.095 321.896 167.647 321.848 167.114 321.848C166.431 321.848 165.823 322.045 165.29 322.44C164.757 322.824 164.335 323.395 164.026 324.152C163.727 324.909 163.578 325.816 163.578 326.872C163.578 327.875 163.711 328.787 163.978 329.608C164.245 330.429 164.65 331.085 165.194 331.576C165.738 332.056 166.41 332.296 167.21 332.296C167.775 332.296 168.207 332.248 168.506 332.152C168.815 332.056 169.077 331.917 169.29 331.736L169.962 330.168L170.97 330.296L170.586 332.568C170.362 332.579 170.031 332.653 169.594 332.792C169.21 332.909 168.837 333 168.474 333.064C168.122 333.139 167.679 333.176 167.146 333.176ZM165.425 341.016H167.185L171.073 352.056L172.065 352.216V353H167.841V352.216L169.169 352.056L168.417 349.688H163.745L162.993 352.056L164.369 352.216V353H160.577V352.216L161.569 352.056L165.425 341.016ZM166.433 343.576L166.033 342.168L165.649 343.608L164.033 348.744H168.113L166.433 343.576ZM165.425 361.96L162.673 362.056L162.113 365.4H161.057L161.329 361.112H171.297L171.489 365.4H170.481L169.953 362.056L167.185 361.96V372.056L169.457 372.216V373H163.345V372.216L165.425 372.056V361.96ZM163.177 382.104L161.865 381.912V381.112H170.009L170.233 383.592H169.321L168.857 382.04L164.889 381.944V386.456L167.561 386.408L167.785 385.08H168.665V388.76H167.785L167.561 387.384L164.889 387.336V392.104L169.401 391.944L170.249 389.928L171.193 390.216L170.729 393H161.849V392.216L163.177 392.056V382.104Z" fill="#2DA440" fill-opacity="0.3"/>
<path d="M197.094 293.176C195.92 293.176 194.918 292.925 194.086 292.424C193.264 291.912 192.64 291.197 192.214 290.28C191.787 289.363 191.574 288.285 191.574 287.048C191.574 285.853 191.824 284.797 192.326 283.88C192.827 282.963 193.515 282.253 194.39 281.752C195.264 281.24 196.246 280.984 197.334 280.984C198.155 280.984 199.142 281.112 200.294 281.368L200.822 281.464L200.662 284.344H199.59L199.19 282.312C199.04 282.184 198.779 282.077 198.406 281.992C198.043 281.896 197.595 281.848 197.062 281.848C196.379 281.848 195.771 282.045 195.238 282.44C194.704 282.824 194.283 283.395 193.974 284.152C193.675 284.909 193.526 285.816 193.526 286.872C193.526 287.875 193.659 288.787 193.926 289.608C194.192 290.429 194.598 291.085 195.142 291.576C195.686 292.056 196.358 292.296 197.158 292.296C197.723 292.296 198.155 292.248 198.454 292.152C198.763 292.056 199.024 291.917 199.238 291.736L199.91 290.168L200.918 290.296L200.534 292.568C200.31 292.579 199.979 292.653 199.542 292.792C199.158 292.909 198.784 293 198.422 293.064C198.07 293.139 197.627 293.176 197.094 293.176ZM191.376 312.216L192.704 312.056V302.104L191.456 301.896V301.112H193.552C193.85 301.112 194.256 301.091 194.768 301.048C195.301 301.005 195.717 300.984 196.016 300.984C197.584 300.984 198.698 301.24 199.36 301.752C200.032 302.253 200.368 303.048 200.368 304.136C200.368 304.893 200.154 305.587 199.728 306.216C199.312 306.845 198.736 307.272 198 307.496C198.341 307.677 198.656 307.992 198.944 308.44C199.242 308.877 199.605 309.491 200.032 310.28C200.362 310.877 200.613 311.315 200.784 311.592C200.965 311.869 201.136 312.024 201.296 312.056L201.92 312.216V313H199.712C199.541 313 199.349 312.819 199.136 312.456C198.922 312.083 198.64 311.512 198.288 310.744C197.904 309.901 197.568 309.235 197.28 308.744C197.002 308.243 196.725 307.923 196.448 307.784C195.306 307.784 194.629 307.779 194.416 307.768V312.056L196 312.216V313H191.376V312.216ZM196.32 306.92C197.002 306.92 197.541 306.696 197.936 306.248C198.33 305.8 198.528 305.133 198.528 304.248C198.528 303.469 198.325 302.877 197.92 302.472C197.525 302.056 196.837 301.848 195.856 301.848C195.514 301.848 195.173 301.869 194.832 301.912C194.618 301.933 194.48 301.944 194.416 301.944V306.904C194.576 306.915 194.906 306.92 195.408 306.92H196.32ZM193.125 322.104L191.813 321.912V321.112H199.957L200.181 323.592H199.269L198.805 322.04L194.837 321.944V326.456L197.509 326.408L197.733 325.08H198.613V328.76H197.733L197.509 327.384L194.837 327.336V332.104L199.349 331.944L200.197 329.928L201.141 330.216L200.677 333H191.797V332.216L193.125 332.056V322.104ZM195.373 341.016H197.133L201.021 352.056L202.013 352.216V353H197.789V352.216L199.117 352.056L198.365 349.688H193.693L192.941 352.056L194.317 352.216V353H190.525V352.216L191.517 352.056L195.373 341.016ZM196.381 343.576L195.981 342.168L195.597 343.608L193.981 348.744H198.061L196.381 343.576ZM195.373 361.96L192.621 362.056L192.061 365.4H191.005L191.277 361.112H201.245L201.437 365.4H200.429L199.901 362.056L197.133 361.96V372.056L199.405 372.216V373H193.293V372.216L195.373 372.056V361.96ZM193.125 382.104L191.813 381.912V381.112H199.957L200.181 383.592H199.269L198.805 382.04L194.837 381.944V386.456L197.509 386.408L197.733 385.08H198.613V388.76H197.733L197.509 387.384L194.837 387.336V392.104L199.349 391.944L200.197 389.928L201.141 390.216L200.677 393H191.797V392.216L193.125 392.056V382.104Z" fill="#2DA440" fill-opacity="0.3"/>
<path d="M218.058 213.154C217.031 213.154 216.154 212.935 215.426 212.496C214.707 212.048 214.161 211.423 213.788 210.62C213.414 209.817 213.228 208.875 213.228 207.792C213.228 206.747 213.447 205.823 213.886 205.02C214.324 204.217 214.926 203.597 215.692 203.158C216.457 202.71 217.316 202.486 218.268 202.486C218.986 202.486 219.85 202.598 220.858 202.822L221.32 202.906L221.18 205.426H220.242L219.892 203.648C219.761 203.536 219.532 203.443 219.206 203.368C218.888 203.284 218.496 203.242 218.03 203.242C217.432 203.242 216.9 203.415 216.434 203.76C215.967 204.096 215.598 204.595 215.328 205.258C215.066 205.921 214.936 206.714 214.936 207.638C214.936 208.515 215.052 209.313 215.286 210.032C215.519 210.751 215.874 211.325 216.35 211.754C216.826 212.174 217.414 212.384 218.114 212.384C218.608 212.384 218.986 212.342 219.248 212.258C219.518 212.174 219.747 212.053 219.934 211.894L220.522 210.522L221.404 210.634L221.068 212.622C220.872 212.631 220.582 212.697 220.2 212.818C219.864 212.921 219.537 213 219.22 213.056C218.912 213.121 218.524 213.154 218.058 213.154ZM217.173 231.154C216.221 231.154 215.414 230.935 214.751 230.496C214.098 230.057 213.603 229.441 213.267 228.648C212.931 227.845 212.763 226.917 212.763 225.862C212.763 224.789 212.964 223.846 213.365 223.034C213.776 222.222 214.336 221.597 215.045 221.158C215.755 220.71 216.553 220.486 217.439 220.486C218.895 220.486 220.006 220.948 220.771 221.872C221.546 222.787 221.933 224.056 221.933 225.68C221.933 226.772 221.723 227.733 221.303 228.564C220.893 229.385 220.323 230.025 219.595 230.482C218.877 230.93 218.069 231.154 217.173 231.154ZM217.355 221.214C216.45 221.214 215.736 221.611 215.213 222.404C214.691 223.188 214.429 224.341 214.429 225.862C214.429 227.262 214.681 228.373 215.185 229.194C215.699 230.006 216.413 230.412 217.327 230.412C218.223 230.412 218.933 230.006 219.455 229.194C219.987 228.382 220.253 227.215 220.253 225.694C220.253 224.285 220.001 223.188 219.497 222.404C218.993 221.611 218.279 221.214 217.355 221.214ZM214.736 239.466L213.602 239.298V238.598H217.62V239.298L216.234 239.466V248.174L219.846 248.048L220.672 245.696L221.526 245.822L221.036 249H213.574V248.314L214.736 248.174V239.466ZM214.736 257.466L213.602 257.298V256.598H217.62V257.298L216.234 257.466V266.174L219.846 266.048L220.672 263.696L221.526 263.822L221.036 267H213.574V266.314L214.736 266.174V257.466ZM216.552 274.514H218.092L221.494 284.174L222.362 284.314V285H218.666V284.314L219.828 284.174L219.17 282.102H215.082L214.424 284.174L215.628 284.314V285H212.31V284.314L213.178 284.174L216.552 274.514ZM217.434 276.754L217.084 275.522L216.748 276.782L215.334 281.276H218.904L217.434 276.754ZM214.353 293.466L213.205 293.298V292.598H215.095C215.412 292.598 215.814 292.579 216.299 292.542C216.747 292.505 217.078 292.486 217.293 292.486C218.581 292.486 219.5 292.687 220.051 293.088C220.611 293.489 220.891 294.077 220.891 294.852C220.891 295.515 220.7 296.084 220.317 296.56C219.934 297.036 219.412 297.335 218.749 297.456C219.645 297.437 220.35 297.647 220.863 298.086C221.376 298.525 221.633 299.122 221.633 299.878C221.633 300.821 221.297 301.591 220.625 302.188C219.962 302.785 218.861 303.084 217.321 303.084C216.985 303.084 216.663 303.07 216.355 303.042C215.627 303.014 215.193 303 215.053 303H213.191V302.314L214.353 302.174V293.466ZM215.837 297.19C215.968 297.199 216.234 297.204 216.635 297.204H217.405C218.058 297.204 218.553 297.022 218.889 296.658C219.225 296.294 219.393 295.776 219.393 295.104C219.393 294.451 219.225 293.975 218.889 293.676C218.553 293.368 217.979 293.214 217.167 293.214C216.831 293.214 216.486 293.233 216.131 293.27L215.837 293.298V297.19ZM215.837 302.216C216.052 302.291 216.537 302.328 217.293 302.328C218.236 302.328 218.917 302.137 219.337 301.754C219.766 301.362 219.981 300.802 219.981 300.074C219.981 299.355 219.794 298.833 219.421 298.506C219.057 298.179 218.464 298.016 217.643 298.016C216.691 298.016 216.089 298.025 215.837 298.044V302.216ZM217.173 321.154C216.221 321.154 215.414 320.935 214.751 320.496C214.098 320.057 213.603 319.441 213.267 318.648C212.931 317.845 212.763 316.917 212.763 315.862C212.763 314.789 212.964 313.846 213.365 313.034C213.776 312.222 214.336 311.597 215.045 311.158C215.755 310.71 216.553 310.486 217.439 310.486C218.895 310.486 220.006 310.948 220.771 311.872C221.546 312.787 221.933 314.056 221.933 315.68C221.933 316.772 221.723 317.733 221.303 318.564C220.893 319.385 220.323 320.025 219.595 320.482C218.877 320.93 218.069 321.154 217.173 321.154ZM217.355 311.214C216.45 311.214 215.736 311.611 215.213 312.404C214.691 313.188 214.429 314.341 214.429 315.862C214.429 317.262 214.681 318.373 215.185 319.194C215.699 320.006 216.413 320.412 217.327 320.412C218.223 320.412 218.933 320.006 219.455 319.194C219.987 318.382 220.253 317.215 220.253 315.694C220.253 314.285 220.001 313.188 219.497 312.404C218.993 311.611 218.279 311.214 217.355 311.214ZM213.054 338.314L214.216 338.174V329.466L213.124 329.284V328.598H214.958C215.22 328.598 215.574 328.579 216.022 328.542C216.489 328.505 216.853 328.486 217.114 328.486C218.486 328.486 219.462 328.71 220.04 329.158C220.628 329.597 220.922 330.292 220.922 331.244C220.922 331.907 220.736 332.513 220.362 333.064C219.998 333.615 219.494 333.988 218.85 334.184C219.149 334.343 219.424 334.618 219.676 335.01C219.938 335.393 220.255 335.929 220.628 336.62C220.918 337.143 221.137 337.525 221.286 337.768C221.445 338.011 221.594 338.146 221.734 338.174L222.28 338.314V339H220.348C220.199 339 220.031 338.841 219.844 338.524C219.658 338.197 219.41 337.698 219.102 337.026C218.766 336.289 218.472 335.705 218.22 335.276C217.978 334.837 217.735 334.557 217.492 334.436C216.494 334.436 215.901 334.431 215.714 334.422V338.174L217.1 338.314V339H213.054V338.314ZM217.38 333.68C217.978 333.68 218.449 333.484 218.794 333.092C219.14 332.7 219.312 332.117 219.312 331.342C219.312 330.661 219.135 330.143 218.78 329.788C218.435 329.424 217.833 329.242 216.974 329.242C216.676 329.242 216.377 329.261 216.078 329.298C215.892 329.317 215.77 329.326 215.714 329.326V333.666C215.854 333.675 216.144 333.68 216.582 333.68H217.38ZM216.552 346.514H218.092L221.494 356.174L222.362 356.314V357H218.666V356.314L219.828 356.174L219.17 354.102H215.082L214.424 356.174L215.628 356.314V357H212.31V356.314L213.178 356.174L216.552 346.514ZM217.434 348.754L217.084 347.522L216.748 348.782L215.334 353.276H218.904L217.434 348.754ZM216.552 365.34L214.144 365.424L213.654 368.35H212.73L212.968 364.598H221.69L221.858 368.35H220.976L220.514 365.424L218.092 365.34V374.174L220.08 374.314V375H214.732V374.314L216.552 374.174V365.34ZM214.585 383.466L213.437 383.298V382.598H220.563L220.759 384.768H219.961L219.555 383.41L216.083 383.326V387.274L218.421 387.232L218.617 386.07H219.387V389.29H218.617L218.421 388.086L216.083 388.044V392.216L220.031 392.076L220.773 390.312L221.599 390.564L221.193 393H213.423V392.314L214.585 392.174V383.466Z" fill="#2DA440" fill-opacity="0.3"/>
<path d="M262.279 184.252H272.035V186.052L268.651 186.484L273.583 203.26L274.627 208.264L275.815 203.26L279.955 189.544L278.983 186.484L276.427 186.052V184.252H286.543V186.052L283.015 186.484L287.875 203.26L289.099 208.66L290.107 203.26L294.643 186.484L291.079 186.052V184.252H299.647V186.052L297.271 186.484L290.107 211.18H286.579L281.071 193.144L275.743 211.18H272.323L264.655 186.52L262.279 186.052V184.252ZM269.946 254.236L272.934 253.876V231.484L270.126 231.016V229.252H274.842C275.514 229.252 276.426 229.204 277.578 229.108C278.778 229.012 279.714 228.964 280.386 228.964C283.914 228.964 286.422 229.54 287.91 230.692C289.422 231.82 290.178 233.608 290.178 236.056C290.178 237.76 289.698 239.32 288.738 240.736C287.802 242.152 286.506 243.112 284.85 243.616C285.618 244.024 286.326 244.732 286.974 245.74C287.646 246.724 288.462 248.104 289.422 249.88C290.166 251.224 290.73 252.208 291.114 252.832C291.522 253.456 291.906 253.804 292.266 253.876L293.67 254.236V256H288.702C288.318 256 287.886 255.592 287.406 254.776C286.926 253.936 286.29 252.652 285.498 250.924C284.634 249.028 283.878 247.528 283.23 246.424C282.606 245.296 281.982 244.576 281.358 244.264C278.79 244.264 277.266 244.252 276.786 244.228V253.876L280.35 254.236V256H269.946V254.236ZM281.07 242.32C282.606 242.32 283.818 241.816 284.706 240.808C285.594 239.8 286.038 238.3 286.038 236.308C286.038 234.556 285.582 233.224 284.67 232.312C283.782 231.376 282.234 230.908 280.026 230.908C279.258 230.908 278.49 230.956 277.722 231.052C277.242 231.1 276.93 231.124 276.786 231.124V242.284C277.146 242.308 277.89 242.32 279.018 242.32H281.07ZM278.996 276.484L275.648 276.052V274.252H286.232V276.052L282.884 276.484V298.876L286.232 299.272V301H275.684V299.236L278.996 298.876V276.484ZM278.941 321.16L272.749 321.376L271.489 328.9H269.113L269.725 319.252H292.153L292.585 328.9H290.317L289.129 321.376L282.901 321.16V343.876L288.013 344.236V346H274.261V344.236L278.941 343.876V321.16ZM273.883 366.484L270.931 366.052V364.252H289.255L289.759 369.832H287.707L286.663 366.34L277.735 366.124V376.276L283.747 376.168L284.251 373.18H286.231V381.46H284.251L283.747 378.364L277.735 378.256V388.984L287.887 388.624L289.795 384.088L291.919 384.736L290.875 391H270.895V389.236L273.883 388.876V366.484Z" fill="#2DA440" fill-opacity="0.3"/>
<path d="M51.8707 169.518H53.8507L58.2247 181.938L59.3407 182.118V183H54.5887V182.118L56.0827 181.938L55.2367 179.274H49.9807L49.1347 181.938L50.6827 182.118V183H46.4167V182.118L47.5327 181.938L51.8707 169.518ZM53.0047 172.398L52.5547 170.814L52.1227 172.434L50.3047 178.212H54.8947L53.0047 172.398ZM47.3732 205.118L48.8672 204.938V193.742L47.4632 193.508V192.626H49.8212C50.1572 192.626 50.6132 192.602 51.1892 192.554C51.7892 192.506 52.2572 192.482 52.5932 192.482C54.3572 192.482 55.6112 192.77 56.3552 193.346C57.1112 193.91 57.4892 194.804 57.4892 196.028C57.4892 196.88 57.2492 197.66 56.7692 198.368C56.3012 199.076 55.6532 199.556 54.8252 199.808C55.2092 200.012 55.5632 200.366 55.8872 200.87C56.2232 201.362 56.6312 202.052 57.1112 202.94C57.4832 203.612 57.7652 204.104 57.9572 204.416C58.1612 204.728 58.3532 204.902 58.5332 204.938L59.2352 205.118V206H56.7512C56.5592 206 56.3432 205.796 56.1032 205.388C55.8632 204.968 55.5452 204.326 55.1492 203.462C54.7172 202.514 54.3392 201.764 54.0152 201.212C53.7032 200.648 53.3912 200.288 53.0792 200.132C51.7952 200.132 51.0332 200.126 50.7932 200.114V204.938L52.5752 205.118V206H47.3732V205.118ZM52.9352 199.16C53.7032 199.16 54.3092 198.908 54.7532 198.404C55.1972 197.9 55.4192 197.15 55.4192 196.154C55.4192 195.278 55.1912 194.612 54.7352 194.156C54.2912 193.688 53.5172 193.454 52.4132 193.454C52.0292 193.454 51.6452 193.478 51.2612 193.526C51.0212 193.55 50.8652 193.562 50.7932 193.562V199.142C50.9732 199.154 51.3452 199.16 51.9092 199.16H52.9352ZM51.8707 216.58L48.7747 216.688L48.1447 220.45H46.9567L47.2627 215.626H58.4767L58.6927 220.45H57.5587L56.9647 216.688L53.8507 216.58V227.938L56.4067 228.118V229H49.5307V228.118L51.8707 227.938V216.58ZM51.8983 239.742L50.2243 239.526V238.626H55.5163V239.526L53.8423 239.742V250.938L55.5163 251.136V252H50.2423V251.118L51.8983 250.938V239.742ZM53.8063 275.198C52.4863 275.198 51.3583 274.916 50.4223 274.352C49.4983 273.776 48.7963 272.972 48.3163 271.94C47.8363 270.908 47.5963 269.696 47.5963 268.304C47.5963 266.96 47.8783 265.772 48.4423 264.74C49.0063 263.708 49.7803 262.91 50.7643 262.346C51.7483 261.77 52.8523 261.482 54.0763 261.482C55.0003 261.482 56.1103 261.626 57.4063 261.914L58.0003 262.022L57.8203 265.262H56.6143L56.1643 262.976C55.9963 262.832 55.7023 262.712 55.2823 262.616C54.8743 262.508 54.3703 262.454 53.7703 262.454C53.0023 262.454 52.3183 262.676 51.7183 263.12C51.1183 263.552 50.6443 264.194 50.2963 265.046C49.9603 265.898 49.7923 266.918 49.7923 268.106C49.7923 269.234 49.9423 270.26 50.2423 271.184C50.5423 272.108 50.9983 272.846 51.6103 273.398C52.2223 273.938 52.9783 274.208 53.8783 274.208C54.5143 274.208 55.0003 274.154 55.3363 274.046C55.6843 273.938 55.9783 273.782 56.2183 273.578L56.9743 271.814L58.1083 271.958L57.6763 274.514C57.4243 274.526 57.0523 274.61 56.5603 274.766C56.1283 274.898 55.7083 275 55.3003 275.072C54.9043 275.156 54.4063 275.198 53.8063 275.198ZM53.078 298.144C51.314 298.144 50.012 297.676 49.172 296.74C48.344 295.792 47.93 294.328 47.93 292.348V285.742L46.652 285.526V284.626H51.458V285.526L49.928 285.76V292.546C49.928 294.178 50.216 295.354 50.792 296.074C51.38 296.794 52.22 297.154 53.312 297.154C54.404 297.154 55.22 296.77 55.76 296.002C56.312 295.234 56.588 294.118 56.588 292.654V285.76L55.076 285.526V284.626H59.27V285.526L57.956 285.742V292.564C57.956 294.436 57.512 295.834 56.624 296.758C55.736 297.682 54.554 298.144 53.078 298.144ZM49.536 308.742L48.078 308.526V307.626H53.244V308.526L51.462 308.742V319.938L56.106 319.776L57.168 316.752L58.266 316.914L57.636 321H48.042V320.118L49.536 319.938V308.742ZM51.8707 330.518H53.8507L58.2247 342.938L59.3407 343.118V344H54.5887V343.118L56.0827 342.938L55.2367 340.274H49.9807L49.1347 342.938L50.6827 343.118V344H46.4167V343.118L47.5327 342.938L51.8707 330.518ZM53.0047 333.398L52.5547 331.814L52.1227 333.434L50.3047 339.212H54.8947L53.0047 333.398ZM51.8707 354.58L48.7747 354.688L48.1447 358.45H46.9567L47.2627 353.626H58.4767L58.6927 358.45H57.5587L56.9647 354.688L53.8507 354.58V365.938L56.4067 366.118V367H49.5307V366.118L51.8707 365.938V354.58ZM49.3418 377.742L47.8658 377.526V376.626H57.0278L57.2798 379.416H56.2538L55.7318 377.67L51.2678 377.562V382.638L54.2738 382.584L54.5258 381.09H55.5158V385.23H54.5258L54.2738 383.682L51.2678 383.628V388.992L56.3438 388.812L57.2978 386.544L58.3598 386.868L57.8378 390H47.8478V389.118L49.3418 388.938V377.742Z" fill="#2DA440" fill-opacity="0.3"/>
<path d="M251.191 185.237C249.211 185.237 247.658 184.64 246.533 183.444C245.414 182.249 244.854 180.564 244.854 178.391C244.854 176.258 245.423 174.579 246.559 173.354C247.702 172.13 249.249 171.518 251.2 171.518C252.6 171.518 254.059 171.913 255.577 172.704V174.629H255.454C254.077 173.475 252.624 172.897 251.094 172.897C249.7 172.897 248.595 173.384 247.781 174.356C246.966 175.323 246.559 176.668 246.559 178.391C246.559 180.102 246.972 181.44 247.799 182.407C248.631 183.368 249.735 183.849 251.112 183.849C251.856 183.849 252.565 183.731 253.239 183.497C253.913 183.257 254.651 182.791 255.454 182.1H255.577V184.033C254.452 184.566 253.576 184.9 252.949 185.035C252.328 185.17 251.742 185.237 251.191 185.237ZM250.084 208.272C248.203 208.272 246.726 207.666 245.654 206.453C244.582 205.234 244.046 203.544 244.046 201.382C244.046 199.226 244.582 197.538 245.654 196.319C246.732 195.095 248.209 194.482 250.084 194.482C251.965 194.482 253.441 195.095 254.513 196.319C255.591 197.538 256.131 199.226 256.131 201.382C256.131 203.532 255.591 205.22 254.513 206.444C253.441 207.663 251.965 208.272 250.084 208.272ZM250.092 195.88C248.721 195.88 247.655 196.36 246.893 197.321C246.132 198.282 245.751 199.636 245.751 201.382C245.751 203.128 246.132 204.481 246.893 205.442C247.655 206.397 248.721 206.875 250.092 206.875C251.458 206.875 252.521 206.397 253.283 205.442C254.045 204.481 254.425 203.128 254.425 201.382C254.425 199.624 254.045 198.268 253.283 197.312C252.521 196.357 251.458 195.88 250.092 195.88ZM255.137 231H253.239L246.568 219.504V231H245.048V217.755H247.315L253.617 228.618V217.755H255.137V231ZM249.275 254V242.179H244.573V240.755H255.612V242.179H250.91V254H249.275ZM256.403 277H254.267L249.908 271.674H247.21V277H245.575V263.755H249.328C251.091 263.755 252.351 264.086 253.107 264.748C253.869 265.41 254.25 266.28 254.25 267.358C254.25 269.181 253.356 270.464 251.569 271.208L256.403 277ZM247.21 265.144V270.329H249.134C250.347 270.329 251.217 270.083 251.745 269.591C252.272 269.099 252.536 268.381 252.536 267.438C252.536 265.908 251.502 265.144 249.433 265.144H247.21ZM252.641 300H247.535V298.778H249.275V287.977H247.535V286.755H252.641V287.977H250.91V298.778H252.641V300ZM245.663 323V309.755H249.565C250.163 309.755 250.67 309.767 251.086 309.79C251.508 309.813 251.938 309.89 252.378 310.019C252.823 310.147 253.204 310.344 253.52 310.607C253.837 310.865 254.071 311.17 254.223 311.521C254.376 311.873 254.452 312.274 254.452 312.726C254.452 313.897 253.86 314.8 252.676 315.433V315.503C253.573 315.69 254.273 316.086 254.777 316.689C255.281 317.287 255.533 318.031 255.533 318.922C255.533 320.182 255.079 321.178 254.171 321.91C253.268 322.637 251.979 323 250.303 323H245.663ZM247.298 311.144V315.169H249.662C250.804 315.169 251.604 314.984 252.061 314.615C252.518 314.246 252.747 313.678 252.747 312.91C252.747 312.377 252.565 311.949 252.202 311.627C251.839 311.305 250.924 311.144 249.46 311.144H247.298ZM247.298 316.522V321.611H249.679C251.361 321.611 252.471 321.38 253.01 320.917C253.555 320.448 253.828 319.818 253.828 319.027C253.828 318.512 253.728 318.072 253.529 317.709C253.33 317.34 253.016 317.05 252.589 316.839C252.167 316.628 251.343 316.522 250.119 316.522H247.298ZM255.173 340.744C255.173 342.66 254.736 344.061 253.863 344.945C252.99 345.83 251.73 346.272 250.084 346.272C246.697 346.272 245.004 344.43 245.004 340.744V332.755H246.638V340.894C246.638 342.312 246.923 343.334 247.491 343.961C248.059 344.582 248.924 344.893 250.084 344.893C251.226 344.893 252.088 344.588 252.668 343.979C253.248 343.363 253.538 342.35 253.538 340.938V332.755H255.173V340.744ZM249.275 369V357.179H244.573V355.755H255.612V357.179H250.91V369H249.275ZM254.777 392H246.155V378.755H254.777V380.179H247.79V384.037H254.601V385.461H247.79V390.576H254.777V392Z" fill="#2DA440" fill-opacity="0.3"/>
<path d="M84.8179 211.316C82.1773 211.316 80.107 210.52 78.607 208.926C77.1148 207.332 76.3687 205.086 76.3687 202.188C76.3687 199.344 77.1265 197.105 78.6421 195.473C80.1656 193.84 82.2281 193.023 84.8296 193.023C86.6968 193.023 88.6421 193.551 90.6656 194.605V197.172H90.5015C88.6656 195.633 86.7281 194.863 84.689 194.863C82.8296 194.863 81.357 195.512 80.271 196.809C79.1851 198.098 78.6421 199.891 78.6421 202.188C78.6421 204.469 79.1929 206.254 80.2945 207.543C81.4038 208.824 82.8765 209.465 84.7124 209.465C85.7046 209.465 86.6499 209.309 87.5484 208.996C88.4468 208.676 89.4312 208.055 90.5015 207.133H90.6656V209.711C89.1656 210.422 87.9976 210.867 87.1617 211.047C86.3335 211.227 85.5523 211.316 84.8179 211.316ZM83.3413 241.363C80.8335 241.363 78.8648 240.555 77.4351 238.938C76.0054 237.312 75.2906 235.059 75.2906 232.176C75.2906 229.301 76.0054 227.051 77.4351 225.426C78.8726 223.793 80.8413 222.977 83.3413 222.977C85.8492 222.977 87.8179 223.793 89.2476 225.426C90.6851 227.051 91.4038 229.301 91.4038 232.176C91.4038 235.043 90.6851 237.293 89.2476 238.926C87.8179 240.551 85.8492 241.363 83.3413 241.363ZM83.3531 224.84C81.5249 224.84 80.1031 225.48 79.0874 226.762C78.0718 228.043 77.564 229.848 77.564 232.176C77.564 234.504 78.0718 236.309 79.0874 237.59C80.1031 238.863 81.5249 239.5 83.3531 239.5C85.1734 239.5 86.5913 238.863 87.607 237.59C88.6226 236.309 89.1304 234.504 89.1304 232.176C89.1304 229.832 88.6226 228.023 87.607 226.75C86.5913 225.477 85.1734 224.84 83.3531 224.84ZM90.0796 271H87.5484L78.6538 255.672V271H76.6265V253.34H79.6499L88.0523 267.824V253.34H90.0796V271ZM90.0796 301H87.5484L78.6538 285.672V301H76.6265V283.34H79.6499L88.0523 297.824V283.34H90.0796V301ZM89.5992 331H78.1031V313.34H89.5992V315.238H80.2827V320.383H89.3648V322.281H80.2827V329.102H89.5992V331ZM84.8179 361.316C82.1773 361.316 80.107 360.52 78.607 358.926C77.1148 357.332 76.3687 355.086 76.3687 352.188C76.3687 349.344 77.1265 347.105 78.6421 345.473C80.1656 343.84 82.2281 343.023 84.8296 343.023C86.6968 343.023 88.6421 343.551 90.6656 344.605V347.172H90.5015C88.6656 345.633 86.7281 344.863 84.689 344.863C82.8296 344.863 81.357 345.512 80.271 346.809C79.1851 348.098 78.6421 349.891 78.6421 352.188C78.6421 354.469 79.1929 356.254 80.2945 357.543C81.4038 358.824 82.8765 359.465 84.7124 359.465C85.7046 359.465 86.6499 359.309 87.5484 358.996C88.4468 358.676 89.4312 358.055 90.5015 357.133H90.6656V359.711C89.1656 360.422 87.9976 360.867 87.1617 361.047C86.3335 361.227 85.5523 361.316 84.8179 361.316ZM82.2632 391V375.238H75.9937V373.34H90.7124V375.238H84.4429V391H82.2632Z" fill="#2DA440" fill-opacity="0.3"/>
</svg>
